<?xml version="1.0" encoding="UTF-8"?>
<!DOCTYPE svg  PUBLIC '-//W3C//DTD SVG 1.1//EN'  'http://www.w3.org/Graphics/SVG/1.1/DTD/svg11.dtd'>
<svg enable-background="new -46.032 -45.883 2322.065 1027.449" version="1.1" viewBox="-46.032 -45.883 2322.065 1027.449" xml:space="preserve" xmlns="http://www.w3.org/2000/svg">
<path d="m1347.1 0h0.54c1.63 12.91 0.67 26.01 1.48 38.99 2.31 81.33 4.34 162.67 6.55 244 0.63 19.02 0.68 38.06 1.78 57.06 0.82-8.98 3.1-18.01 7.93-25.7 3.11-4.96 7.71-9.33 13.51-10.81 3.55-1.02 7.28-0.32 10.84 0.35-0.15-33.65 0.02-67.3-0.09-100.95-0.16-5.25 3.11-9.68 4.75-14.49 0.6-0.16 1.81-0.48 2.41-0.65 0.29-2.86 0.26-5.83 1.25-8.57 1.03-2 2.54-3.68 3.93-5.44 1.07-0.09 2.17-0.17 3.28-0.24 0.58-2.87 1.75-5.56 3.62-7.82 3.09 0.01 6.2-0.03 9.32-0.11 1.72 2.36 2.74 5.1 3.16 8 1.09 0.09 2.19 0.18 3.31 0.27 1.68 2.52 4.3 4.78 4.37 8.04 0.21 1.95 0.32 3.91 0.46 5.87 1.07 0.18 2.16 0.37 3.27 0.55 1.33 4.53 3.87 8.79 4.12 13.58 0.01 54.77-0.02 109.55 0.01 164.32 5.37-0.05 10.75 0.13 16.12-0.02 3.69 0.1 6.52-2.58 9.48-4.38 2.14 4.4 1.04 9.42 1.31 14.13 0.3 8.23-0.24 16.46 0.05 24.69 14.93-13.33 29.6-26.95 44.13-40.71 1.06-1.11 2.48-2.21 2.28-3.94 0.09-9.04 0.01-18.08 0-27.12-3.23 1.23-6.61 3.11-10.16 2.33-1.85-0.41-2.81-2.4-2.64-4.14 0.26-4.33 2.73-8.04 4.76-11.72-1.71-0.81-4.32-1.1-4.63-3.4-0.6-4.91 2.47-9.21 4.72-13.3-2.35-0.55-5.25-1.64-4.86-4.62 0.62-6.5 4.81-11.94 8.69-16.93 1.54-2.23 4.34-4.09 4.15-7.09 0.04-7.93-0.04-15.87 0-23.8 7.81-0.06 15.61-0.05 23.42-0.01 0 2.41 0 4.83 0.01 7.25 2.67-0.78 5.43-2.03 8.3-1.53 1.79 0.36 3.06 2.2 2.93 4.01-0.21 4.45-2.78 8.31-4.95 12.05 2.08 0.57 4.9 1.22 4.94 3.94 0.05 4.71-2.68 8.8-5.01 12.68 1.73 0.81 5.08 0.65 5.05 3.27 0.35 6.16-4.29 10.99-5.56 16.8-0.57 0.1-1.73 0.29-2.31 0.39-1.29 1.78-3.54 3.33-3.31 5.78 0.02 7.51-0.22 15.02 0.02 22.53 20.59-22.21 38.98-47.09 50.58-75.24 8.15-0.25 16.31-0.09 24.48-0.09-16.03 34.51-32.52 68.78-48.66 103.24-8.86 18.98-17.61 38.02-25.49 57.43-1.51 3.54-0.96 7.46-1.02 11.21 0.17 44.35-0.07 88.71 0.01 133.06 0.15 4.86 2.46 9.27 3.7 13.89 2.63 9.47 6.52 18.53 9.08 28.02 10.49 0.47 21 0.07 31.51 0.22 1.73 36.62 3.33 73.25 5.02 109.87 0.41 7.73 0.41 15.51 1.45 23.21 4.23-52.03 9.2-104 13.7-156 1.27-10.34 0.86-20.76 0.88-31.15 0.01-15.27-0.07-30.53 0.05-45.79 7.27-2.15 14.02-7.14 21.9-6.36 8.71 0.26 17.41 0.7 26.13 0.84-0.01-31.44-0.07-62.89 0.04-94.33 3.67 0.01 7.35 0.02 11.05 0.04 1.08-5.85 1.82-11.76 3.26-17.53 2.79 5.36 2.46 11.74 4.03 17.51 6.62 0.06 13.25-0.15 19.89 0.14-0.12 5.11-0.06 10.22-0.11 15.33 1.19 0.05 2.4 0.1 3.64 0.16 0.33-17.78 0.9-35.54 1.22-53.31 6.76 5.32 13.13 11.12 19.84 16.51 0.13-21.33-0.12-42.67 0.12-64.01 9.67-5.21 20.42-8.24 31.44-8.34-0.11-4.99-0.09-9.97-0.06-14.96 3.61-0.01 7.22-0.01 10.85 0 0.02 5.57 0.01 11.15 0 16.73 6.19 1.54 12.09 3.99 17.93 6.52 0.16 4.18 0.14 8.37 0.12 12.56-6.04-0.22-12.07-0.58-18.1-0.71 0 1.24 0.02 2.49 0.07 3.75 6.01 0.26 12.04 0.45 18.06 0.85-0.04 1.53-0.06 3.07-0.05 4.61-6.01-0.23-12-0.42-17.99-0.76 0 0.95-0.02 2.85-0.02 3.8 5.98 0.3 11.98 0.56 17.98 0.78 0.01 1.56 0.05 3.13 0.1 4.7-6.05-0.19-12.08-0.56-18.12-0.72-0.02 1.24-0.02 2.48-0.01 3.73 6.03 0.33 12.08 0.45 18.12 0.93-0.08 13.41-0.02 26.82-0.04 40.23-0.07 9.02 0.27 18.05-0.48 27.05 28.27-0.03 56.54 0.14 84.8-0.09-0.1-10.91-0.09-21.83-0.01-32.74 5.47-1.75 7.18-7.7 8.76-12.58 3.62-12.9 5.24-26.27 6.5-39.58 2.97-26.24 3.92-52.66 6.61-78.93 0.87-5.73 0.89-11.87 3.63-17.11 1.45-2.11 3.44 0.4 3.84 2.04 2.43 7.44 3.02 15.32 4.01 23.04 2.75 25.31 4.64 50.69 7.56 75.98 1.49 11.84 2.99 23.74 6.16 35.27 1.38 4.5 2.72 9.85 7.44 11.98 0.1 10.89 0.07 21.77 0.02 32.66 35.29 0.17 70.58 0.04 105.87 0.06 0.02-23.4-0.01-46.81 0.01-70.21 1.41-0.07 2.86-0.13 4.33-0.19 1.3-2.05 2.63-4.07 4.03-6.06l-1.08-0.72c4.72-3.36 6.53-9.39 10.22-13.76-0.34-0.1-1.03-0.29-1.37-0.39 2.54-0.49 3.65-2.77 4.54-4.95 1.74-2.15 3.44-4.33 5.18-6.5 1.89 2.46 3.68 4.99 5.4 7.58-0.46 0.64-0.89 1.28-1.29 1.93 0.38-0.44 1.15-1.33 1.54-1.78 4.82 7.21 9.76 14.35 14.83 21.38-1.3 1.08-2.51 2.21-3.68 3.39 1.95 0.18 3.83-0.38 5.2-1.86 0.23 2.26 2.66 1.6 4.15 2.15 0.06 161.26-0.01 322.52 0.04 483.79 6.81-0.03 13.63 0.01 20.46-0.04-0.02-65.24-0.04-130.47 0.01-195.71h9.45c-0.01-2.8-0.01-5.6 0.01-8.38 2.53-0.02 5.08-0.02 7.65 0.01 2.85-2.58 5.64-5.24 8.45-7.89-2.16-3.61-4.63-7.51-4.15-11.9 0.19-2.54 2.29-4.89 4.92-4.93 4.52-0.24 8.14 2.94 11.36 5.68 1.69-1.79 3.48-3.57 5.75-4.66-1.39 1.91-3.08 3.57-4.55 5.39 0.93 3.27 3.67 5.96 4.1 9.5 0.83 3.11-0.41 7.24-3.9 7.99-4.76 0.82-8.82-2.61-12.11-5.56 0.03 2.1 0.04 4.21 0.08 6.32 5.42 0.04 10.85 0.03 16.28 0.04-0.01 2.79-0.01 5.58 0.02 8.38 27.86 0.08 55.73-0.11 83.6 0.1-0.18 47.8 0.09 95.6-0.14 143.41 4.85 0.21 9.7 0.12 14.57 0.13 0.04 56.77-0.01 113.54 0.03 170.31h-2229v-199.6c5.66-0.64 11.36-0.22 17.03-0.32 19.48-0.1 38.96 0.17 58.44-0.14 2.96-13.43 6.19-26.8 9.26-40.2 1.06-4.88 2.7-9.71 2.62-14.76-0.07-15.04 0.02-30.07-0.05-45.1 11.09-0.29 22.18-0.17 33.27-0.33 9.13-9.67 18.1-19.51 27.4-29.02-0.38 43.2-0.19 86.4-0.22 129.6 1.95-0.08 3.91-0.15 5.87-0.22-0.16-35.96-0.03-71.92-0.07-107.88 0.12-51.12-0.23-102.25 0.18-153.36 2.52 4.28 3.99 9.35 7.96 12.63 4.25 4.2 11.36 5.18 16.38 1.76 5.74-3.56 8.26-10.14 10.43-16.2-0.04 23.55 0.06 47.1-0.05 70.66 3.73 0.1 7.46 0.12 11.19 0.09 0.03-1.94 0.02-3.88 0.05-5.81 2.7-0.01 5.41 0 8.11 0.01 0.08 1.94 0.16 3.9 0.26 5.85 3.2-0.05 6.4-0.06 9.6-0.06 0.01-5.26-0.01-10.53 0.02-15.79 2.33-0.02 4.65-0.02 6.98-0.03 0-1.66 0.01-3.32 0.02-4.97 2.14-0.01 4.29-0.02 6.44-0.01 0.02 1.65 0.04 3.32 0.06 4.99 2.23 0.01 4.46 0.01 6.7 0.03 0.02 5.29-0.11 10.59 0.16 15.88 1.87-0.05 3.74-0.09 5.61-0.12 0.01-2.93 0.02-5.85 0.03-8.77 8.39-0.01 16.78-0.04 25.17 0.01 0.01 2.94 0.05 5.88 0.16 8.83 4.13-0.04 8.25-0.05 12.38-0.06 2.24-125.18 4.69-250.33 6.93-375.5 0.33 0.02 0.98 0.06 1.3 0.09-0.16 71.92 0 143.85-0.08 215.77-0.07 3.16-0.13 6.35 0.56 9.46-0.14 0.39-0.43 1.16-0.57 1.55 0.03 49.51 0.1 99.02-0.04 148.53 8.1 0.27 16.2 0.04 24.3 0.14 0.09-51.53-0.04-103.06 0.09-154.58 0.36-4.12 1.61-8.11 3.04-11.97 0.93-2.57 2.93-5.34 6-5.13 8.53-0.13 17.07-0.16 25.61-0.08 0.04-1.52 0.09-3.02 0.13-4.53 5.59-0.13 11.19-0.11 16.78-0.02-0.08 1.29-0.16 2.59-0.23 3.89 2.14 0.85 4.68 1.62 5.62 3.99 2.91 6.5 3.63 13.77 3.36 20.83-0.01 49.2-0.05 98.4 0.02 147.6 13.57-0.03 27.15-0.06 40.72 0.02 0.14-32.01 0.02-64.01 0.06-96.01 8.27-0.37 16.74 0.97 24.82-1.35-0.37-0.71-1.13-2.11-1.5-2.82 5.57-33.04 11.34-66.05 16.85-99.09 0.72-0.17 2.14-0.51 2.85-0.67-0.69-0.01-2.07-0.02-2.76-0.03 0.73-3.6 1.52-7.21 1.58-10.9 0.77 0.41 1.54 0.84 2.31 1.29-0.34-1.07-0.87-2.03-1.59-2.88 0.28-1.85 0.63-3.7 1.04-5.52 0.25 1.2 0.75 3.61 1 4.82-0.12-4.2-1.48-8.42 0.32-12.52 2.47 4.38 2.2 9.62 3.54 14.36-0.33 0.42-0.98 1.25-1.3 1.67l1.84 0.56c0.11 1.05 0.35 3.15 0.47 4.21-0.69-0.35-2.05-1.04-2.74-1.39 2.82 1.16 3.81 3.81 3.4 6.73 0.58 1.96 1.09 3.94 1.59 5.94-1.53 0.25-3.22 0.29-4.29 1.58 0.69-0.18 2.06-0.53 2.75-0.71 0.01 1.53-0.14 3.14 0.58 4.57 0.04-1.65 0.03-3.3-0.04-4.94l1.13-0.16c0.63 2.92 0.56 5.9-0.69 8.64 0.4-0.8 1.21-2.4 1.61-3.2 0.59 3.31 0.99 6.64 1.29 9.99 1.52 4.62 2.08 9.48 2.99 14.25 0.55 2.39-0.41 4.72-0.98 7 0.49-0.87 1.46-2.62 1.95-3.49 0.03 1.81-0.07 3.66-0.35 5.46 0.31 0.21 0.95 0.64 1.26 0.86 0.16 2.76-0.39 5.5-0.72 8.24 0.45-1.46 0.91-2.91 1.37-4.36 0.19 1.1 0.58 3.31 0.78 4.41-0.49 1.23-0.99 2.46-1.47 3.7 0.49-0.47 1.47-1.42 1.96-1.9 1.88 12.29 4.2 24.51 6.61 36.7-0.52 0.67-1.04 1.35-1.55 2.02-0.02-1.09-0.06-3.26-0.08-4.35-0.97 1.58-2.19 3.09-2.63 4.93 0.05 1.73 0.65 3.39 1.07 5.06 1.22-1.65 2.56-3.35 2.51-5.55 0.34 0.04 1.02 0.12 1.35 0.16 0.23 1.4 0.5 2.8 0.83 4.2 0.08 1.45 0.16 2.91 0.23 4.37 4.31 0.21 8.65 0.86 12.94 0.14 2.46-0.23 5.04-1.14 7.47-0.21 0.27 1.14 0.4 2.3 0.4 3.49-0.05 48.44-0.03 96.87-0.02 145.3 7.5-0.13 15.01 0.34 22.5-0.28 1.94-26.06 4.58-52.06 6.79-78.1 1.55-16.11 2.52-32.28 4.24-48.36 2.52-38.77 5.34-77.62 5.1-116.52-0.17-24.25-1.32-48.57-5.23-72.54-3.29-19.25-8.5-38.67-19.45-55.1 2.99-0.02 6.02 0.27 8.98-0.23 1.79-0.85 3.35-2.11 5.15-2.95 1.86-0.29 3.76-0.19 5.65-0.2 0.32 1.14 0.65 2.27 0.99 3.42 4.46-0.11 8.94-0.11 13.41-0.14 1-21.32 1.02-42.69 2.33-63.99 0.62 1.14 1.06 2.39 1.02 3.71 0.5 20.13 0.88 40.25 1.48 60.37 7.1 0.04 14.21 0.03 21.32 0-0.78 4.28-3.26 7.91-5.25 11.68-7.01 12.7-11.89 27.18-10.41 41.85 1.1 9.09 3.09 18.04 4.24 27.12 7.44 46.78 11.64 94.05 13.53 141.37 3.55-2.77 6.72-5.99 10.01-9.05 2.21 0 4.41 0.05 6.63-0.01 5.45 0.52 8.48-6.03 13.97-5.43 14.02 0.04 28.05 0.01 42.07 0.01 3.92-0.39 5.74 3.87 8.97 5.25 2.92 0.37 5.88 0.14 8.82 0.11 3.04 3.26 6.25 6.38 9.12 9.8 1.4 1.63 0.78 3.97 1 5.95-0.11 9.34 0.71 18.7 0.05 28.04-0.37 5.03 1.16 9.95 0.84 14.98 0.29 26.48 1.02 52.96 1.51 79.44 6.02-0.1 12.04-0.16 18.06-0.16-0.96 8.23-2.13 16.44-3.04 24.69 6.48-0.08 12.97-0.02 19.46-0.06 0.09-42.56-0.25-85.13 0.17-127.68 6.51 0.19 13.04-0.03 19.56 0.18 0.36-18.18 0.03-36.38 0.16-54.56 3.64-0.06 7.28-0.04 10.92 0.13-0.01 16.63-0.25 33.27 0.14 49.9 0.92 1.38 1.69 2.85 2.32 4.4 2.79 0.04 5.57 0.03 8.36 0.03 0.09-1.19 0.18-2.38 0.28-3.56 0.76 0.01 2.28 0.04 3.04 0.05 0.85-0.87 1.7-1.74 2.56-2.61-0.52-2.04-2.3-4.67-0.25-6.44 2.37-0.63 4.79 0.94 7.24 0.94 0.15 3.9 0.93 7.74 1.05 11.65 1.59 0 3.19 0 4.81 0.02-0.14 18.85 0.01 37.7-0.03 56.56 6.46 0.03 12.93 0.21 19.39-0.02 0.3-54.19 1.22-108.37 1.52-162.56 8.66 0.14 17.3 0.61 25.96 0.78 5.9 0.02 10.76 4.29 14.18 8.72 6.23 8.68 8.58 19.39 10.51 29.7 4.02 24.37 4.49 49.16 8.36 73.55 2.33 14.36 5.62 28.92 13.05 41.6 0.81-0.48 1.62-0.97 2.44-1.44-0.23-26.48 0.02-52.97-0.05-79.46 7.46-0.01 14.92-0.01 22.39 0.01 0.04-32.97 0.01-65.93 0.01-98.9-0.04-1.34 0.17-2.76 1.32-3.61 3.44-3.19 6.7-6.6 10.32-9.57 2.12-0.91 4.62-0.31 6.9-0.47 3-16.76 5.68-33.59 8.71-50.34 0.08-2.6 1.91-0.13 1.73 0.99 2.88 16.13 5.96 32.23 8.7 48.39-0.71-0.59-2.11-1.77-2.81-2.36 0.22 0.59 0.66 1.75 0.88 2.33 4.98 1.45 10.19 0.97 15.32 1.01 15.44 0 30.88 0 46.33-0.01 0.04-7.07 0.04-14.13-0.01-21.2 3.64-0.08 7.28-0.09 10.92-0.06 0.04 7.1-0.05 14.2 0.06 21.3 3.25-0.04 6.5-0.04 9.76 0.01-0.03 123.66 0.01 247.33-0.02 371 6.68 0.06 13.36-0.02 20.05 0.06 6.49-5.67 12.67-11.7 19.14-17.41 0.09-58.28 0.05-116.55 0.01-174.83 1.48-0.09 2.97-0.17 4.47-0.25-0.06-63.92-0.07-127.84 0.01-191.76-1.22-0.09-2.42-0.18-3.62-0.26 0.01-11.87 0.1-23.74-0.04-35.6-7.27-1.13-14.86-2.24-21.27-6.07-2.29-1.28-4.29-4.38-2.3-6.78 2.82-3.34 7.27-4.57 11.3-5.8 11.45-3 23.38-3.76 35.18-3.69 11.4 0.16 22.95 1.03 33.92 4.33 3.57 1.27 7.78 2.58 9.71 6.14 1.11 2.73-1.51 5.09-3.66 6.29-6.64 3.55-14.23 4.65-21.58 5.74-0.02 11.84 0 23.68-0.01 35.52-0.87 0.02-2.59 0.07-3.45 0.09 0.01 63.99-0.03 127.98 0 191.97 15.26-0.04 30.53 0.14 45.79-0.09 0.02-31.95-0.27-63.94 0.21-95.87 3.81-7.34 8.71-14.1 12.9-21.24 5.42-8.34 10.05-17.17 15.87-25.25 6.43-0.75 12.97-0.07 19.46-0.31 0.07-10.7 0.32-21.4 0.29-32.1 7.18-0.34 14.39 0.21 21.57-0.26 3.68-5.41 6.66-11.38 9.7-17.19 0.81-8.17 0.09-16.47 0.33-24.69 0-31.05-0.01-62.09 0.01-93.14 3.99-0.01 8-0.02 12.01-0.01 0-1.78 0.01-3.56 0.05-5.34 0.84 0.03 1.7 0.06 2.58 0.1-4.28-3.06-1.97-8.42 0.44-11.88-1.06-1.34-2.07-2.71-3.03-4.1 1.41 0.85 2.76 1.79 4.14 2.73 2.72-2.01 6.61-5.14 9.93-2.47 2.62 3.22 0.1 7.39-1.51 10.47 1.68 1.67 3.25 3.51 5.27 4.8 1.72 0.54 3.57 0.31 5.38 0.45-0.03 1.73-0.02 3.47-0.02 5.21 14.13 0.17 28.27-0.19 42.4 0.18-0.1 3.57-0.13 7.14-0.05 10.71 3.78-3.25 6.83-7.26 10.68-10.43 4.25-1.02 8.8-0.21 13.17-0.43-0.04 2.53-0.07 5.07-0.11 7.61 0.53 0.23 1.6 0.71 2.13 0.95 1.62 4.09 4.34 8.01 4.03 12.61-0.13 37.96 0.07 75.93-0.1 113.89 6.85 0.25 13.7 0.1 20.56 0.11 0.07-116.34-0.15-232.7 0.12-349.03m-110.99 208.67c1.9-0.1 3.82-0.13 5.75-0.13 0.05-1.16 0.11-2.32 0.19-3.48-1.86 1.4-3.83 2.65-5.94 3.61m-0.06 22.34c0.03 16.48-0.05 32.95 0.04 49.43 2.26-2.76 4.71-5.41 6.62-8.43 0.51-11.2-0.19-22.44 0.35-33.63 8.7 0.16 17.41-0.04 26.12 0.11 2.08-2.4 4.06-4.9 5.94-7.47-13.02-0.06-26.05-0.03-39.07-0.01m-312.87 84.94c0.02 3.33 3.03-1.39 0 0m-0.7 3.05c0.16 3.32 2.97-1.59 0 0m-1.52 3.47c1.07 1.43 2.6 2.5 4.4 1.35-0.77-1.91-2.69-2.17-4.4-1.35m7.08-0.03c-0.93 1.17-0.7 1.84 0.7 2.01 0.91-1.17 0.68-1.84-0.7-2.01m-7.89 4.98c1.39 0.8 2.81 2.33 4.49 1.18 0.83-2.84-3.06-2.59-4.49-1.18m7.98-0.34c-0.52 1.65 0.02 2.22 1.62 1.73 0.5-1.66-0.04-2.23-1.62-1.73m-8.55 5.25c0.95 0.99 1.86 1.99 2.83 2.98 0.8-0.89 1.61-1.77 2.42-2.66-0.63-0.63-1.25-1.26-1.87-1.89-1.14 0.52-2.27 1.04-3.38 1.57m9.7 2.15c1.34-0.24 1.57-0.97 0.71-2.18-1.35 0.22-1.58 0.95-0.71 2.18m-5.42 1.95c1 0.8 2.02 1.61 3.04 2.41-0.05-1.47-0.08-2.93-0.11-4.4-1.01 0.64-1.95 1.34-2.93 1.99m4.24-0.29c-1.59 2.95 3.31 0.19 0 0m1105.3 1.47c1.92 0.63 4.27 0.78 6.2 0.01-1.08-1.45-5.14-1.38-6.2-0.01m14.85-0.44c0.24 1.3 0.99 1.53 2.26 0.7-0.3-1.31-1.05-1.54-2.26-0.7m-1129.7 3.32c1.2 1.02 2.81-0.96 2.22-2.14-1.14-0.77-3.3 0.93-2.22 2.14m12.59-1.23c-1.89 2.75 3.29 0.57 0 0m1099.8 1.22c3.06 0.46 6.24 0.89 9.29-0.06-3-1.35-6.3-1.03-9.29 0.06m18.26-0.36c-0.03 1.44 2.43 1.4 3.3 0.66-0.14-1.33-2.51-1.43-3.3-0.66m-1132 1.31c-1.21 0.7-0.21 3.29 1.06 1.98 1.03-0.75 0.25-3.12-1.06-1.98m5.41 1.96c1.05 1.67 2.87 1.98 4.73 2.07-0.1-1.42-0.19-2.84-0.28-4.25-1.49 0.72-2.98 1.44-4.45 2.18m1121.6-2.1c-1.75 0.21-0.9 2.59 0.63 1.93 1.67-0.24 0.79-2.59-0.63-1.93m-15.47 2.2c3.8 1.02 7.92 2.19 11.63 0.15-3.67-1.88-7.83-0.93-11.63-0.15m18.5-1.22c0.55 0.48 0.55 0.48 0 0m-1118.4 1c-1.58 2.98 3.34 0.2 0 0m1120.2-0.23c1.58 2.12 4.28 2.54 6.05 0.4-2.01-0.42-4.06-0.71-6.05-0.4m-3.69 1.55c-2.13 0.39-4.25 0.71-6.35 0.98 2.55 0.74 5.14 1.36 7.77 1.92l-0.35-1.36c0.85 0.16 2.54 0.46 3.38 0.62 0.63-2.51-2.08-1.12-3.37-1.07-0.27-0.27-0.81-0.81-1.08-1.09m-18.81 2.98c0.05 0.43 0.13 1.31 0.17 1.74-2.25-0.43-5.29-1.52-5.9 1.56 5.06 0.01 9.42-3 14.07-4.64-2.76 0.6-5.56 1.02-8.34 1.34m27.76-0.37c-0.65 1.65 3.27 3.06 3.7 1.19-0.71-1.19-2.49-1.69-3.7-1.19m-17.65 3.48c5.51 0.32 11.02-0.44 16.54 0.05-5.14-2.44-11.25-1.58-16.54-0.05m-1578.8 3.64c-1.52 2.98 3.33 0.23 0 0m2.39 2.93c0.46 0.59 0.46 0.59 0 0m450.88 5.97c-0.02 2.01-0.04 4.03-0.02 6.05 2.14-1.84 4.14-3.84 5.99-5.97 3.45 1.03 6.71 2.57 10.01 4 1.58-1.19 3.4-1.65 5.29-0.86-0.16 1.48-0.48 3.37 1.41 3.87 0.13-2.35 0.13-4.71 0.08-7.06-5.36-1.94-10.48-4.51-15.88-6.32-2.78 1.44-4.57 4.24-6.88 6.29m-451.16-2.94c-1.58 2.99 3.29 0.23 0 0m-2.61 1.97c-0.58 1.61-0.04 2.16 1.61 1.65 0.56-1.63 0.02-2.18-1.61-1.65m5.82 0.95c0.48 0.55 0.48 0.55 0 0m-7.81 4.13c-0.24 1.81-1.46 4.85 1.55 4.63-0.41-1.58-0.82-3.15-1.21-4.71 2.17 1.11 4 2.78 6.24 3.78-1.02-1.86-2.42-3.49-3.95-4.93-0.89 0.38-1.77 0.79-2.63 1.23m455.72 9.56c0.01 2.05 0.03 4.11 0.05 6.16 2.1-1.99 4.14-4.03 6.12-6.14 5.63 2.06 11.07 4.62 16.7 6.7-0.02-2.22-0.03-4.43-0.04-6.64-5.42-2.23-10.84-4.44-16.23-6.69-2.23 2.18-4.44 4.38-6.6 6.61m-453.92-3.69c0.49 0.56 0.49 0.56 0 0m1.65 2.28c0.89 0.86 1.79 1.73 2.69 2.6-0.4 0.49-1.19 1.46-1.58 1.94 0.59 1.51 1.15 3.07 2.2 4.34-0.06-3.7-0.33-7.39-0.49-11.07-0.95 0.72-1.89 1.46-2.82 2.19m4.24-0.3c-1.56 2.97 3.31 0.19 0 0m-9.07 2.59c1.57 1.94 3.98 3.02 5.68 0.52-0.49-0.63-1.48-1.88-1.97-2.51-1.25 0.65-2.48 1.32-3.71 1.99m11.02-0.64c-1.53 0.39-0.75 3.13 0.76 2.72 1.41-0.55 0.76-3.01-0.76-2.72m-1.96 3.24c-0.87 1.22-0.63 1.94 0.72 2.15 0.85-1.24 0.61-1.95-0.72-2.15m-9.39 4.04c1.11 0.85 2.2 1.72 3.44 2.4 1.32-0.04 2.48-0.82 3.72-1.23-1.2-1.23-2.25-2.86-3.94-3.42-1.14 0.65-2.17 1.47-3.22 2.25m11.57-1.55c-0.77 1.52-1.27 4.36 1.38 3.93 0.9-1.59-0.03-3.06-1.38-3.93m445.95 7.48c-0.06 2.08-0.07 4.15-0.04 6.23 2.2-1.98 4.26-4.1 6.45-6.09 5.39 2.39 10.88 4.59 16.37 6.79 0.01-2.3-0.04-4.6-0.19-6.89-5.39-1.79-10.45-4.42-15.81-6.23-2.68 1.39-4.43 4.27-6.78 6.19m-458.48 0.69c1.42 1.21 2.87 2.4 4.33 3.59 1.71-0.85 3.4-1.73 5.09-2.64-1.58-1.29-3.25-2.45-4.99-3.48-1.47 0.86-2.96 1.69-4.43 2.53m13.51-1.87c-0.63 0.94-1.29 1.88-1.81 2.89 0.68 0.97 1.5 1.86 2.29 2.77 0.6-0.99 1.2-1.98 1.81-2.97-0.78-0.9-1.52-1.8-2.29-2.69m-13.95 9.38c-0.55 2 2.58 2.45 3.71 3.64 1.65-0.92 3.31-1.81 4.99-2.68-1.18-1.23-2.33-2.6-3.93-3.29-1.69 0.55-3.28 1.37-4.77 2.33m13.15 0.7c0.95 0.93 1.53 2.9 3.2 2.64 0.44-0.77 0.86-1.54 1.27-2.33-0.98-0.88-1.94-1.75-2.89-2.63-0.4 0.58-1.19 1.74-1.58 2.32m-16.42 8.52c2.14 1.76 4.28 3.52 6.37 5.34 2.68-1.22 5.28-2.63 7.81-4.13-2.36-1.82-4.8-3.53-7.24-5.22-2.37 1.24-4.68 2.59-6.94 4.01m19.14-3.08c-0.93 1.47-1.86 2.94-2.78 4.41 1.24 1.41 2.5 2.81 3.76 4.22 0.98-1.46 1.9-2.96 2.83-4.45-1.17-1.49-2.42-2.9-3.81-4.18m-20.95 14.37c2.49 2.11 5.14 4 7.76 5.95 2.71-1.37 5.44-2.74 7.93-4.5-2.59-1.92-5.06-3.98-7.62-5.92-2.66 1.56-5.37 3-8.07 4.47m22.13-3.32c-0.88 1.76-1.76 3.52-2.66 5.27 1.31 1.48 2.7 2.91 4.14 4.28 1.03-1.73 2.05-3.47 3.08-5.2-1.39-1.59-2.86-3.1-4.56-4.35m-4.69 7.28c-1.3 2.18-2.56 4.4-3.76 6.64 1.46 0.97 2.92 1.95 4.4 2.92-0.1-3.2-0.3-6.39-0.64-9.56m1.63 1.05c-0.04 2.54 0.01 5.08 0 7.62 1.04 0.13 2.08 0.26 3.12 0.41 0.31 2.91 1.39 5.69 3.03 8.12 1.19-2.4 2.54-4.72 3.54-7.19-1.34-2.18-3.34-3.83-5.16-5.57-0.72 1.44-1.41 2.89-2.07 4.35-1.09-2.49-1.66-5.16-2.46-7.74m-21.32 7.74c3.14 2.68 6.35 5.28 9.45 8.01 2.05-3.07 3.99-6.22 5.74-9.48-1.78-1.28-3.54-2.58-5.3-3.87-3.3 1.78-6.66 3.44-9.89 5.34m1240.3 2.31c0.12 9.63 0.02 19.27 0.06 28.91 0.2 12.62-0.99 25.25 0 37.86 0.67 0.05 1.99 0.13 2.66 0.18 0.02-22.38-0.15-44.76 0.6-67.13-0.83 0.04-2.49 0.13-3.32 0.18m84.5 0.22c2.9 3.39 6.63 5.92 9.95 8.88 9.04 7.65 18.1 15.28 27.15 22.92 0.01 12.92-0.02 25.85 0.01 38.77 2.63 0.06 5.28 0.14 7.94 0.25 0.11 27.85-0.21 55.71 0.17 83.55 13.25 4.19 26.41 8.7 39.63 13.03 0.12-55.9-0.09-111.75 0.09-167.65-16.57-0.2-33.14-0.03-49.7-0.09-11.75 0.21-23.53-0.43-35.24 0.34m139.45-0.27c0.12 26.85-0.01 53.71 0.07 80.56 9.49 0.08 19.01-0.23 28.5 0.16-0.16 9.21-0.03 18.41-0.06 27.62 21.6 0.11 43.21 0 64.82 0.04-0.02 23.33 0.07 46.67-0.05 70.01 4.13 0.19 8.26 0.06 12.41 0.18 0.4-5.89 0.1-11.79 0.2-17.68-0.01-53.65 0.01-107.3-0.01-160.95-35.29 0.02-70.59-0.09-105.88 0.06m-1453.3 6.9c3.42 2.9 6.77 5.88 10.38 8.54-0.15-4.79-0.57-9.55-0.76-14.33-3.26 1.83-6.45 3.79-9.62 5.79m10.9-4.66c0.14 3.97 0.37 7.94 0.7 11.9 1.95-1.69 2.79-4.22 4.04-6.39-1.4-1.99-2.97-3.85-4.74-5.51m-24.89 13.03c0.74 0.87 1.41 1.8 2.17 2.69 0.94-1.11 2.26-1.56 3.68-1.61 1.94-2.24 3.16-5.02 4.88-7.42-3.6 2.06-7.08 4.35-10.73 6.34m35.29 5.6c0.71-1.3 1.43-2.6 2.13-3.9-1.96-2.45-3.91-4.9-6.1-7.14 1.2 3.72 2.66 7.35 3.97 11.04m-36.07-4.23c-0.54 4.19-2.13 8.39-1.18 12.64 1.78-2.68 3.71-5.31 4.99-8.29-0.43-2.03-2.4-3.07-3.81-4.35m12.24 7.99c-0.05 0.2-0.16 0.62-0.22 0.83 1.85 1.78 3.88 3.36 5.79 5.07 2.77 0.04 5.56 0.04 8.34 0.01-0.25-4.17-0.52-8.34-0.75-12.52-4.39 2.2-8.84 4.28-13.16 6.61m14.52-5.74c0.09 1.6 0.2 3.21 0.27 4.83 0.5-1.2 1.37-2.04 2.68-2.32-0.99-0.84-1.98-1.67-2.95-2.51m3.53 7.7c-0.81-0.19-2.45-0.58-3.27-0.77 0.09 1.55 0.19 3.11 0.29 4.67 1.3 0.04 2.6 0.05 3.92 0.1-0.33-3.19 1.34-0.92 2.26-0.5 1.31 0.89 3.04 0.37 4.53 0.55-1.12-1.82-2.63-3.33-4.59-4.19-0.1-3.18-2.43-1.92-3.14 0.14m-29.61 4c5.06-0.02 10.11-0.06 15.17 0.02-1.78-1.84-3.69-3.55-5.76-5.05-3.11 1.72-6.36 3.19-9.41 5.03m38.9-1.91c-0.36 1.59 0.28 2.19 1.91 1.81 0.36-1.6-0.28-2.2-1.91-1.81m287.52 23.44c0.52 0.53 0.52 0.53 0 0m-579.87 90.84c0.18 24.3 0.02 48.6 0.08 72.9 0.1 0.29 0.3 0.87 0.4 1.17 14.59 0.24 29.2 0.07 43.8 0.17-7.9-18.3-16.27-36.4-24.29-54.65-1.15-3.14-1-6.93-3.6-9.39-4.56-4.72-11.31-6.16-16.39-10.2z" fill="#6cb2eb" fill-opacity="0.5"/>
</svg>
