<?xml version="1.0" standalone="no"?><!-- Generator: Gravit.io --><svg xmlns="http://www.w3.org/2000/svg" xmlns:xlink="http://www.w3.org/1999/xlink" style="isolation:isolate" viewBox="0 0 851 315" width="851" height="315"><defs><clipPath id="_clipPath_Va2Dv0TXHA0xcOCBJUVL9jnZMefoUBTx"><rect width="851" height="315"/></clipPath></defs><g clip-path="url(#_clipPath_Va2Dv0TXHA0xcOCBJUVL9jnZMefoUBTx)"><rect width="851" height="315" style="fill:rgb(255,245,235)"/><path d=" M 574.72 177.51 L 574.72 177.51 Q 569.02 177.51 564.61 175.08 L 564.61 175.08 L 564.61 175.08 Q 560.2 172.65 558.28 168.51 L 558.28 168.51 L 558.28 168.51 Q 558.04 168.09 558.04 167.55 L 558.04 167.55 L 558.04 167.55 Q 558.04 166.71 558.67 166.14 L 558.67 166.14 L 558.67 166.14 Q 559.3 165.57 560.38 165.57 L 560.38 165.57 L 560.38 165.57 Q 561.1 165.57 561.73 165.96 L 561.73 165.96 L 561.73 165.96 Q 562.36 166.35 562.66 167.07 L 562.66 167.07 L 562.66 167.07 Q 564.04 169.77 567.25 171.42 L 567.25 171.42 L 567.25 171.42 Q 570.46 173.07 574.72 173.07 L 574.72 173.07 L 574.72 173.07 Q 579.64 173.07 582.64 170.7 L 582.64 170.7 L 582.64 170.7 Q 585.64 168.33 585.64 164.07 L 585.64 164.07 L 585.64 164.07 Q 585.64 160.29 582.85 157.71 L 582.85 157.71 L 582.85 157.71 Q 580.06 155.13 574.48 154.41 L 574.48 154.41 L 574.48 154.41 Q 567.52 153.57 563.53 150.06 L 563.53 150.06 L 563.53 150.06 Q 559.54 146.55 559.54 141.45 L 559.54 141.45 L 559.54 141.45 Q 559.54 137.85 561.49 135.12 L 561.49 135.12 L 561.49 135.12 Q 563.44 132.39 566.89 130.92 L 566.89 130.92 L 566.89 130.92 Q 570.34 129.45 574.72 129.45 L 574.72 129.45 L 574.72 129.45 Q 579.46 129.45 583.06 131.55 L 583.06 131.55 L 583.06 131.55 Q 586.66 133.65 588.7 137.01 L 588.7 137.01 L 588.7 137.01 Q 589.12 137.67 589.12 138.45 L 589.12 138.45 L 589.12 138.45 Q 589.12 139.59 588.04 140.25 L 588.04 140.25 L 588.04 140.25 Q 587.56 140.49 586.96 140.49 L 586.96 140.49 L 586.96 140.49 Q 586.3 140.49 585.73 140.16 L 585.73 140.16 L 585.73 140.16 Q 585.16 139.83 584.8 139.23 L 584.8 139.23 L 584.8 139.23 Q 581.44 133.95 574.66 133.89 L 574.66 133.89 L 574.66 133.89 Q 569.8 133.89 566.98 135.93 L 566.98 135.93 L 566.98 135.93 Q 564.16 137.97 564.16 141.75 L 564.16 141.75 L 564.16 141.75 Q 564.16 148.77 575.5 150.27 L 575.5 150.27 L 575.5 150.27 Q 582.94 151.35 586.6 154.83 L 586.6 154.83 L 586.6 154.83 Q 590.26 158.31 590.26 164.01 L 590.26 164.01 L 590.26 164.01 Q 590.26 168.21 588.22 171.27 L 588.22 171.27 L 588.22 171.27 Q 586.18 174.33 582.64 175.92 L 582.64 175.92 L 582.64 175.92 Q 579.1 177.51 574.72 177.51 L 574.72 177.51 Z  M 613.9 172.29 L 613.9 172.29 Q 614.86 172.29 615.46 172.95 L 615.46 172.95 L 615.46 172.95 Q 616.06 173.61 616.06 174.63 L 616.06 174.63 L 616.06 174.63 Q 616.06 175.59 615.34 176.25 L 615.34 176.25 L 615.34 176.25 Q 614.62 176.91 613.54 176.91 L 613.54 176.91 L 612.28 176.91 L 612.28 176.91 Q 609.1 176.91 606.58 175.38 L 606.58 175.38 L 606.58 175.38 Q 604.06 173.85 602.65 171.24 L 602.65 171.24 L 602.65 171.24 Q 601.24 168.63 601.24 165.33 L 601.24 165.33 L 601.24 149.31 L 597.34 149.31 L 597.34 149.31 Q 596.38 149.31 595.81 148.74 L 595.81 148.74 L 595.81 148.74 Q 595.24 148.17 595.24 147.33 L 595.24 147.33 L 595.24 147.33 Q 595.24 146.43 595.81 145.86 L 595.81 145.86 L 595.81 145.86 Q 596.38 145.29 597.34 145.29 L 597.34 145.29 L 601.24 145.29 L 601.24 135.99 L 601.24 135.99 Q 601.24 134.97 601.87 134.31 L 601.87 134.31 L 601.87 134.31 Q 602.5 133.65 603.52 133.65 L 603.52 133.65 L 603.52 133.65 Q 604.54 133.65 605.2 134.31 L 605.2 134.31 L 605.2 134.31 Q 605.86 134.97 605.86 135.99 L 605.86 135.99 L 605.86 145.29 L 612.64 145.29 L 612.64 145.29 Q 613.6 145.29 614.17 145.86 L 614.17 145.86 L 614.17 145.86 Q 614.74 146.43 614.74 147.33 L 614.74 147.33 L 614.74 147.33 Q 614.74 148.17 614.17 148.74 L 614.17 148.74 L 614.17 148.74 Q 613.6 149.31 612.64 149.31 L 612.64 149.31 L 605.86 149.31 L 605.86 165.33 L 605.86 165.33 Q 605.86 168.39 607.66 170.34 L 607.66 170.34 L 607.66 170.34 Q 609.46 172.29 612.28 172.29 L 612.28 172.29 L 613.9 172.29 Z  M 638.5 177.21 L 638.5 177.21 Q 633.76 177.21 629.95 175.05 L 629.95 175.05 L 629.95 175.05 Q 626.14 172.89 623.98 169.08 L 623.98 169.08 L 623.98 169.08 Q 621.82 165.27 621.82 160.53 L 621.82 160.53 L 621.82 160.53 Q 621.82 155.79 623.98 151.95 L 623.98 151.95 L 623.98 151.95 Q 626.14 148.11 629.95 145.95 L 629.95 145.95 L 629.95 145.95 Q 633.76 143.79 638.5 143.79 L 638.5 143.79 L 638.5 143.79 Q 643.24 143.79 647.02 145.95 L 647.02 145.95 L 647.02 145.95 Q 650.8 148.11 652.99 151.95 L 652.99 151.95 L 652.99 151.95 Q 655.18 155.79 655.18 160.53 L 655.18 160.53 L 655.18 160.53 Q 655.18 165.27 653.02 169.08 L 653.02 169.08 L 653.02 169.08 Q 650.86 172.89 647.05 175.05 L 647.05 175.05 L 647.05 175.05 Q 643.24 177.21 638.5 177.21 L 638.5 177.21 Z  M 638.5 173.01 L 638.5 173.01 Q 641.98 173.01 644.74 171.39 L 644.74 171.39 L 644.74 171.39 Q 647.5 169.77 649.06 166.92 L 649.06 166.92 L 649.06 166.92 Q 650.62 164.07 650.62 160.53 L 650.62 160.53 L 650.62 160.53 Q 650.62 156.93 649.06 154.08 L 649.06 154.08 L 649.06 154.08 Q 647.5 151.23 644.74 149.61 L 644.74 149.61 L 644.74 149.61 Q 641.98 147.99 638.5 147.99 L 638.5 147.99 L 638.5 147.99 Q 635.08 147.99 632.29 149.61 L 632.29 149.61 L 632.29 149.61 Q 629.5 151.23 627.91 154.08 L 627.91 154.08 L 627.91 154.08 Q 626.32 156.93 626.32 160.53 L 626.32 160.53 L 626.32 160.53 Q 626.32 164.07 627.91 166.92 L 627.91 166.92 L 627.91 166.92 Q 629.5 169.77 632.29 171.39 L 632.29 171.39 L 632.29 171.39 Q 635.08 173.01 638.5 173.01 L 638.5 173.01 Z  M 679 143.73 L 679 143.73 Q 681.52 143.73 682.99 144.39 L 682.99 144.39 L 682.99 144.39 Q 684.46 145.05 684.46 146.25 L 684.46 146.25 L 684.46 146.25 Q 684.46 146.61 684.4 146.79 L 684.4 146.79 L 684.4 146.79 Q 684.16 147.63 683.65 147.93 L 683.65 147.93 L 683.65 147.93 Q 683.14 148.23 682.24 148.23 L 682.24 148.23 L 682.24 148.23 Q 681.7 148.23 680.38 148.11 L 680.38 148.11 L 680.38 148.11 Q 679.9 148.05 678.94 148.05 L 678.94 148.05 L 678.94 148.05 Q 674.44 148.05 671.59 150.45 L 671.59 150.45 L 671.59 150.45 Q 668.74 152.85 668.74 156.69 L 668.74 156.69 L 668.74 174.63 L 668.74 174.63 Q 668.74 175.71 668.14 176.31 L 668.14 176.31 L 668.14 176.31 Q 667.54 176.91 666.46 176.91 L 666.46 176.91 L 666.46 176.91 Q 665.38 176.91 664.78 176.31 L 664.78 176.31 L 664.78 176.31 Q 664.18 175.71 664.18 174.63 L 664.18 174.63 L 664.18 146.37 L 664.18 146.37 Q 664.18 145.29 664.78 144.69 L 664.78 144.69 L 664.78 144.69 Q 665.38 144.09 666.46 144.09 L 666.46 144.09 L 666.46 144.09 Q 667.54 144.09 668.14 144.69 L 668.14 144.69 L 668.14 144.69 Q 668.74 145.29 668.74 146.37 L 668.74 146.37 L 668.74 149.01 L 668.74 149.01 Q 670.48 146.49 673.18 145.11 L 673.18 145.11 L 673.18 145.11 Q 675.88 143.73 679 143.73 L 679 143.73 Z  M 717.34 144.27 L 717.34 144.27 Q 718.72 144.81 718.72 146.01 L 718.72 146.01 L 718.72 146.01 Q 718.72 146.55 718.48 147.09 L 718.48 147.09 L 699.04 189.81 L 699.04 189.81 Q 698.5 191.19 697.3 191.19 L 697.3 191.19 L 697.3 191.19 Q 696.7 191.19 696.22 190.95 L 696.22 190.95 L 696.22 190.95 Q 694.84 190.41 694.84 189.15 L 694.84 189.15 L 694.84 189.15 Q 694.84 188.61 695.08 188.07 L 695.08 188.07 L 701.02 174.93 L 701.02 174.87 L 687.64 147.15 L 687.64 147.15 Q 687.4 146.67 687.4 146.07 L 687.4 146.07 L 687.4 146.07 Q 687.4 144.81 688.72 144.27 L 688.72 144.27 L 688.72 144.27 Q 689.2 144.03 689.8 144.03 L 689.8 144.03 L 689.8 144.03 Q 691.06 144.03 691.6 145.29 L 691.6 145.29 L 703.3 169.95 L 714.46 145.35 L 714.46 145.35 Q 715.06 144.03 716.26 144.03 L 716.26 144.03 L 716.26 144.03 Q 716.8 144.03 717.34 144.27 L 717.34 144.27 Z  M 385.68 130.05 L 385.68 130.05 Q 386.58 130.05 387.15 130.68 L 387.15 130.68 L 387.15 130.68 Q 387.72 131.31 387.72 132.21 L 387.72 132.21 L 387.72 132.21 Q 387.72 133.05 387.3 133.71 L 387.3 133.71 L 370.92 159.57 L 370.92 174.57 L 370.92 174.57 Q 370.92 175.53 370.26 176.22 L 370.26 176.22 L 370.26 176.22 Q 369.6 176.91 368.58 176.91 L 368.58 176.91 L 368.58 176.91 Q 367.62 176.91 366.93 176.22 L 366.93 176.22 L 366.93 176.22 Q 366.24 175.53 366.24 174.57 L 366.24 174.57 L 366.24 159.57 L 349.92 133.71 L 349.92 133.71 Q 349.44 132.93 349.44 132.21 L 349.44 132.21 L 349.44 132.21 Q 349.44 131.31 350.1 130.68 L 350.1 130.68 L 350.1 130.68 Q 350.76 130.05 351.72 130.05 L 351.72 130.05 L 351.72 130.05 Q 352.38 130.05 352.83 130.32 L 352.83 130.32 L 352.83 130.32 Q 353.28 130.59 353.7 131.19 L 353.7 131.19 L 368.64 155.25 L 383.52 131.31 L 383.52 131.31 Q 384 130.65 384.48 130.35 L 384.48 130.35 L 384.48 130.35 Q 384.96 130.05 385.68 130.05 L 385.68 130.05 Z  M 408.36 177.21 L 408.36 177.21 Q 403.62 177.21 399.81 175.05 L 399.81 175.05 L 399.81 175.05 Q 396 172.89 393.84 169.08 L 393.84 169.08 L 393.84 169.08 Q 391.68 165.27 391.68 160.53 L 391.68 160.53 L 391.68 160.53 Q 391.68 155.79 393.84 151.95 L 393.84 151.95 L 393.84 151.95 Q 396 148.11 399.81 145.95 L 399.81 145.95 L 399.81 145.95 Q 403.62 143.79 408.36 143.79 L 408.36 143.79 L 408.36 143.79 Q 413.1 143.79 416.88 145.95 L 416.88 145.95 L 416.88 145.95 Q 420.66 148.11 422.85 151.95 L 422.85 151.95 L 422.85 151.95 Q 425.04 155.79 425.04 160.53 L 425.04 160.53 L 425.04 160.53 Q 425.04 165.27 422.88 169.08 L 422.88 169.08 L 422.88 169.08 Q 420.72 172.89 416.91 175.05 L 416.91 175.05 L 416.91 175.05 Q 413.1 177.21 408.36 177.21 L 408.36 177.21 Z  M 408.36 173.01 L 408.36 173.01 Q 411.84 173.01 414.6 171.39 L 414.6 171.39 L 414.6 171.39 Q 417.36 169.77 418.92 166.92 L 418.92 166.92 L 418.92 166.92 Q 420.48 164.07 420.48 160.53 L 420.48 160.53 L 420.48 160.53 Q 420.48 156.93 418.92 154.08 L 418.92 154.08 L 418.92 154.08 Q 417.36 151.23 414.6 149.61 L 414.6 149.61 L 414.6 149.61 Q 411.84 147.99 408.36 147.99 L 408.36 147.99 L 408.36 147.99 Q 404.94 147.99 402.15 149.61 L 402.15 149.61 L 402.15 149.61 Q 399.36 151.23 397.77 154.08 L 397.77 154.08 L 397.77 154.08 Q 396.18 156.93 396.18 160.53 L 396.18 160.53 L 396.18 160.53 Q 396.18 164.07 397.77 166.92 L 397.77 166.92 L 397.77 166.92 Q 399.36 169.77 402.15 171.39 L 402.15 171.39 L 402.15 171.39 Q 404.94 173.01 408.36 173.01 L 408.36 173.01 Z  M 461.52 144.09 L 461.52 144.09 Q 462.54 144.09 463.2 144.72 L 463.2 144.72 L 463.2 144.72 Q 463.86 145.35 463.86 146.37 L 463.86 146.37 L 463.86 174.57 L 463.86 174.57 Q 463.86 175.59 463.2 176.25 L 463.2 176.25 L 463.2 176.25 Q 462.54 176.91 461.52 176.91 L 461.52 176.91 L 461.52 176.91 Q 460.5 176.91 459.87 176.25 L 459.87 176.25 L 459.87 176.25 Q 459.24 175.59 459.24 174.57 L 459.24 174.57 L 459.24 172.53 L 459.24 172.53 Q 457.26 174.75 454.44 176.01 L 454.44 176.01 L 454.44 176.01 Q 451.62 177.27 448.32 177.27 L 448.32 177.27 L 448.32 177.27 Q 444.06 177.27 440.67 175.47 L 440.67 175.47 L 440.67 175.47 Q 437.28 173.67 435.36 170.22 L 435.36 170.22 L 435.36 170.22 Q 433.44 166.77 433.44 161.97 L 433.44 161.97 L 433.44 146.37 L 433.44 146.37 Q 433.44 145.41 434.1 144.75 L 434.1 144.75 L 434.1 144.75 Q 434.76 144.09 435.72 144.09 L 435.72 144.09 L 435.72 144.09 Q 436.74 144.09 437.4 144.75 L 437.4 144.75 L 437.4 144.75 Q 438.06 145.41 438.06 146.37 L 438.06 146.37 L 438.06 161.97 L 438.06 161.97 Q 438.06 167.31 441.03 170.1 L 441.03 170.1 L 441.03 170.1 Q 444 172.89 448.8 172.89 L 448.8 172.89 L 448.8 172.89 Q 451.74 172.89 454.11 171.75 L 454.11 171.75 L 454.11 171.75 Q 456.48 170.61 457.86 168.6 L 457.86 168.6 L 457.86 168.6 Q 459.24 166.59 459.24 164.13 L 459.24 164.13 L 459.24 146.37 L 459.24 146.37 Q 459.24 145.35 459.87 144.72 L 459.87 144.72 L 459.87 144.72 Q 460.5 144.09 461.52 144.09 L 461.52 144.09 Z  M 489.48 143.73 L 489.48 143.73 Q 492 143.73 493.47 144.39 L 493.47 144.39 L 493.47 144.39 Q 494.94 145.05 494.94 146.25 L 494.94 146.25 L 494.94 146.25 Q 494.94 146.61 494.88 146.79 L 494.88 146.79 L 494.88 146.79 Q 494.64 147.63 494.13 147.93 L 494.13 147.93 L 494.13 147.93 Q 493.62 148.23 492.72 148.23 L 492.72 148.23 L 492.72 148.23 Q 492.18 148.23 490.86 148.11 L 490.86 148.11 L 490.86 148.11 Q 490.38 148.05 489.42 148.05 L 489.42 148.05 L 489.42 148.05 Q 484.92 148.05 482.07 150.45 L 482.07 150.45 L 482.07 150.45 Q 479.22 152.85 479.22 156.69 L 479.22 156.69 L 479.22 174.63 L 479.22 174.63 Q 479.22 175.71 478.62 176.31 L 478.62 176.31 L 478.62 176.31 Q 478.02 176.91 476.94 176.91 L 476.94 176.91 L 476.94 176.91 Q 475.86 176.91 475.26 176.31 L 475.26 176.31 L 475.26 176.31 Q 474.66 175.71 474.66 174.63 L 474.66 174.63 L 474.66 146.37 L 474.66 146.37 Q 474.66 145.29 475.26 144.69 L 475.26 144.69 L 475.26 144.69 Q 475.86 144.09 476.94 144.09 L 476.94 144.09 L 476.94 144.09 Q 478.02 144.09 478.62 144.69 L 478.62 144.69 L 478.62 144.69 Q 479.22 145.29 479.22 146.37 L 479.22 146.37 L 479.22 149.01 L 479.22 149.01 Q 480.96 146.49 483.66 145.11 L 483.66 145.11 L 483.66 145.11 Q 486.36 143.73 489.48 143.73 L 489.48 143.73 Z  M 182.42 130.05 L 182.42 130.05 Q 183.38 130.05 183.92 130.68 L 183.92 130.68 L 183.92 130.68 Q 184.46 131.31 184.46 132.27 L 184.46 132.27 L 184.46 132.27 Q 184.46 132.75 184.28 133.41 L 184.28 133.41 L 172.04 174.93 L 172.04 174.93 Q 171.74 175.89 171.11 176.4 L 171.11 176.4 L 171.11 176.4 Q 170.48 176.91 169.64 176.91 L 169.64 176.91 L 169.64 176.91 Q 168.8 176.91 168.17 176.37 L 168.17 176.37 L 168.17 176.37 Q 167.54 175.83 167.3 174.99 L 167.3 174.99 L 157.58 139.53 L 147.92 174.93 L 147.92 174.93 Q 147.62 175.83 146.99 176.37 L 146.99 176.37 L 146.99 176.37 Q 146.36 176.91 145.52 176.91 L 145.52 176.91 L 145.52 176.91 Q 144.68 176.91 144.05 176.37 L 144.05 176.37 L 144.05 176.37 Q 143.42 175.83 143.18 174.99 L 143.18 174.99 L 130.88 133.41 L 130.88 133.41 Q 130.7 132.75 130.7 132.33 L 130.7 132.33 L 130.7 132.33 Q 130.7 131.31 131.3 130.68 L 131.3 130.68 L 131.3 130.68 Q 131.9 130.05 132.86 130.05 L 132.86 130.05 L 132.86 130.05 Q 134.54 130.05 135.14 131.85 L 135.14 131.85 L 145.52 168.03 L 155.36 132.87 L 155.36 132.87 Q 155.54 132.21 156.17 131.79 L 156.17 131.79 L 156.17 131.79 Q 156.8 131.37 157.58 131.37 L 157.58 131.37 L 157.58 131.37 Q 158.36 131.37 158.96 131.79 L 158.96 131.79 L 158.96 131.79 Q 159.56 132.21 159.8 132.93 L 159.8 132.93 L 169.7 168.09 L 180.14 131.61 L 180.14 131.61 Q 180.62 130.05 182.42 130.05 L 182.42 130.05 Z  M 206 143.73 L 206 143.73 Q 208.52 143.73 209.99 144.39 L 209.99 144.39 L 209.99 144.39 Q 211.46 145.05 211.46 146.25 L 211.46 146.25 L 211.46 146.25 Q 211.46 146.61 211.4 146.79 L 211.4 146.79 L 211.4 146.79 Q 211.16 147.63 210.65 147.93 L 210.65 147.93 L 210.65 147.93 Q 210.14 148.23 209.24 148.23 L 209.24 148.23 L 209.24 148.23 Q 208.7 148.23 207.38 148.11 L 207.38 148.11 L 207.38 148.11 Q 206.9 148.05 205.94 148.05 L 205.94 148.05 L 205.94 148.05 Q 201.44 148.05 198.59 150.45 L 198.59 150.45 L 198.59 150.45 Q 195.74 152.85 195.74 156.69 L 195.74 156.69 L 195.74 174.63 L 195.74 174.63 Q 195.74 175.71 195.14 176.31 L 195.14 176.31 L 195.14 176.31 Q 194.54 176.91 193.46 176.91 L 193.46 176.91 L 193.46 176.91 Q 192.38 176.91 191.78 176.31 L 191.78 176.31 L 191.78 176.31 Q 191.18 175.71 191.18 174.63 L 191.18 174.63 L 191.18 146.37 L 191.18 146.37 Q 191.18 145.29 191.78 144.69 L 191.78 144.69 L 191.78 144.69 Q 192.38 144.09 193.46 144.09 L 193.46 144.09 L 193.46 144.09 Q 194.54 144.09 195.14 144.69 L 195.14 144.69 L 195.14 144.69 Q 195.74 145.29 195.74 146.37 L 195.74 146.37 L 195.74 149.01 L 195.74 149.01 Q 197.48 146.49 200.18 145.11 L 200.18 145.11 L 200.18 145.11 Q 202.88 143.73 206 143.73 L 206 143.73 Z  M 221.96 176.91 L 221.96 176.91 Q 220.94 176.91 220.28 176.25 L 220.28 176.25 L 220.28 176.25 Q 219.62 175.59 219.62 174.57 L 219.62 174.57 L 219.62 146.43 L 219.62 146.43 Q 219.62 145.41 220.28 144.75 L 220.28 144.75 L 220.28 144.75 Q 220.94 144.09 221.96 144.09 L 221.96 144.09 L 221.96 144.09 Q 222.98 144.09 223.61 144.75 L 223.61 144.75 L 223.61 144.75 Q 224.24 145.41 224.24 146.43 L 224.24 146.43 L 224.24 174.57 L 224.24 174.57 Q 224.24 175.59 223.61 176.25 L 223.61 176.25 L 223.61 176.25 Q 222.98 176.91 221.96 176.91 L 221.96 176.91 Z  M 221.9 137.85 L 221.9 137.85 Q 220.52 137.85 219.59 136.89 L 219.59 136.89 L 219.59 136.89 Q 218.66 135.93 218.66 134.55 L 218.66 134.55 L 218.66 134.55 Q 218.66 133.11 219.62 132.21 L 219.62 132.21 L 219.62 132.21 Q 220.58 131.31 221.96 131.31 L 221.96 131.31 L 221.96 131.31 Q 223.28 131.31 224.24 132.21 L 224.24 132.21 L 224.24 132.21 Q 225.2 133.11 225.2 134.55 L 225.2 134.55 L 225.2 134.55 Q 225.2 135.93 224.24 136.89 L 224.24 136.89 L 224.24 136.89 Q 223.28 137.85 221.9 137.85 L 221.9 137.85 Z  M 250.46 172.29 L 250.46 172.29 Q 251.42 172.29 252.02 172.95 L 252.02 172.95 L 252.02 172.95 Q 252.62 173.61 252.62 174.63 L 252.62 174.63 L 252.62 174.63 Q 252.62 175.59 251.9 176.25 L 251.9 176.25 L 251.9 176.25 Q 251.18 176.91 250.1 176.91 L 250.1 176.91 L 248.84 176.91 L 248.84 176.91 Q 245.66 176.91 243.14 175.38 L 243.14 175.38 L 243.14 175.38 Q 240.62 173.85 239.21 171.24 L 239.21 171.24 L 239.21 171.24 Q 237.8 168.63 237.8 165.33 L 237.8 165.33 L 237.8 149.31 L 233.9 149.31 L 233.9 149.31 Q 232.94 149.31 232.37 148.74 L 232.37 148.74 L 232.37 148.74 Q 231.8 148.17 231.8 147.33 L 231.8 147.33 L 231.8 147.33 Q 231.8 146.43 232.37 145.86 L 232.37 145.86 L 232.37 145.86 Q 232.94 145.29 233.9 145.29 L 233.9 145.29 L 237.8 145.29 L 237.8 135.99 L 237.8 135.99 Q 237.8 134.97 238.43 134.31 L 238.43 134.31 L 238.43 134.31 Q 239.06 133.65 240.08 133.65 L 240.08 133.65 L 240.08 133.65 Q 241.1 133.65 241.76 134.31 L 241.76 134.31 L 241.76 134.31 Q 242.42 134.97 242.42 135.99 L 242.42 135.99 L 242.42 145.29 L 249.2 145.29 L 249.2 145.29 Q 250.16 145.29 250.73 145.86 L 250.73 145.86 L 250.73 145.86 Q 251.3 146.43 251.3 147.33 L 251.3 147.33 L 251.3 147.33 Q 251.3 148.17 250.73 148.74 L 250.73 148.74 L 250.73 148.74 Q 250.16 149.31 249.2 149.31 L 249.2 149.31 L 242.42 149.31 L 242.42 165.33 L 242.42 165.33 Q 242.42 168.39 244.22 170.34 L 244.22 170.34 L 244.22 170.34 Q 246.02 172.29 248.84 172.29 L 248.84 172.29 L 250.46 172.29 Z  M 274.1 143.79 L 274.1 143.79 Q 278.54 143.79 281.96 145.86 L 281.96 145.86 L 281.96 145.86 Q 285.38 147.93 287.27 151.59 L 287.27 151.59 L 287.27 151.59 Q 289.16 155.25 289.16 159.93 L 289.16 159.93 L 289.16 159.93 Q 289.16 160.89 288.56 161.46 L 288.56 161.46 L 288.56 161.46 Q 287.96 162.03 287 162.03 L 287 162.03 L 262.76 162.03 L 262.76 162.03 Q 263.24 166.95 266.6 170.01 L 266.6 170.01 L 266.6 170.01 Q 269.96 173.07 275 173.07 L 275 173.07 L 275 173.07 Q 277.16 173.07 279.35 172.32 L 279.35 172.32 L 279.35 172.32 Q 281.54 171.57 282.86 170.43 L 282.86 170.43 L 282.86 170.43 Q 283.64 169.83 284.48 169.83 L 284.48 169.83 L 284.48 169.83 Q 285.14 169.83 285.8 170.31 L 285.8 170.31 L 285.8 170.31 Q 286.58 171.03 286.58 171.93 L 286.58 171.93 L 286.58 171.93 Q 286.58 172.71 285.92 173.31 L 285.92 173.31 L 285.92 173.31 Q 283.94 174.99 280.88 176.1 L 280.88 176.1 L 280.88 176.1 Q 277.82 177.21 275 177.21 L 275 177.21 L 275 177.21 Q 270.2 177.21 266.42 175.08 L 266.42 175.08 L 266.42 175.08 Q 262.64 172.95 260.51 169.14 L 260.51 169.14 L 260.51 169.14 Q 258.38 165.33 258.38 160.53 L 258.38 160.53 L 258.38 160.53 Q 258.38 155.67 260.39 151.86 L 260.39 151.86 L 260.39 151.86 Q 262.4 148.05 265.97 145.92 L 265.97 145.92 L 265.97 145.92 Q 269.54 143.79 274.1 143.79 L 274.1 143.79 Z  M 274.1 147.93 L 274.1 147.93 Q 269.54 147.93 266.54 150.75 L 266.54 150.75 L 266.54 150.75 Q 263.54 153.57 262.88 158.19 L 262.88 158.19 L 284.84 158.19 L 284.84 158.19 Q 284.36 153.57 281.48 150.75 L 281.48 150.75 L 281.48 150.75 Q 278.6 147.93 274.1 147.93 L 274.1 147.93 Z " fill-rule="evenodd" fill="rgb(89,106,115)"/><path d=" M 463.555 104.679 L 463.555 104.679 Q 463.865 105.271 463.914 105.701 L 463.914 105.701 L 463.914 105.701 Q 464.029 106.702 463.396 107.5 L 463.396 107.5 L 463.396 107.5 Q 462.763 108.297 461.714 108.418 L 461.714 108.418 L 461.714 108.418 Q 460.999 108.5 460.308 108.169 L 460.308 108.169 L 460.308 108.169 Q 459.618 107.838 459.25 107.155 L 459.25 107.155 L 455.811 100.786 L 438.692 102.756 L 436.742 109.745 L 436.742 109.745 Q 436.491 110.498 435.917 110.975 L 435.917 110.975 L 435.917 110.975 Q 435.344 111.452 434.629 111.534 L 434.629 111.534 L 434.629 111.534 Q 433.58 111.655 432.803 110.995 L 432.803 110.995 L 432.803 110.995 Q 432.027 110.335 431.912 109.334 L 431.912 109.334 L 431.912 109.334 Q 431.857 108.857 432.024 108.21 L 432.024 108.21 L 441.742 74.671 L 441.742 74.671 Q 442.266 72.92 443.887 72.733 L 443.887 72.733 L 443.887 72.733 Q 445.604 72.536 446.416 74.134 L 446.416 74.134 L 463.555 104.679 Z  M 444.898 80.686 L 439.889 98.463 L 453.67 96.878 L 444.898 80.686 Z  M 479.244 79.779 L 479.244 79.779 Q 482.916 79.356 486.144 80.748 L 486.144 80.748 L 486.144 80.748 Q 489.372 82.141 491.437 84.971 L 491.437 84.971 L 491.437 84.971 Q 493.502 87.802 493.93 91.521 L 493.93 91.521 L 493.93 91.521 Q 494.358 95.241 493.109 98.452 L 493.109 98.452 L 493.109 98.452 Q 491.86 101.664 489.268 103.702 L 489.268 103.702 L 489.268 103.702 Q 486.676 105.739 483.242 106.134 L 483.242 106.134 L 483.242 106.134 Q 480.476 106.453 477.961 105.582 L 477.961 105.582 L 477.961 105.582 Q 475.445 104.712 473.54 102.854 L 473.54 102.854 L 475.021 115.729 L 475.021 115.729 Q 475.147 116.826 474.556 117.57 L 474.556 117.57 L 474.556 117.57 Q 473.965 118.314 472.869 118.441 L 472.869 118.441 L 472.869 118.441 Q 471.82 118.561 471.051 117.973 L 471.051 117.973 L 471.051 117.973 Q 470.283 117.385 470.157 116.288 L 470.157 116.288 L 467.655 94.544 L 467.655 94.544 Q 467.227 90.824 468.62 87.596 L 468.62 87.596 L 468.62 87.596 Q 470.012 84.368 472.792 82.285 L 472.792 82.285 L 472.792 82.285 Q 475.572 80.201 479.244 79.779 L 479.244 79.779 Z  M 481.795 101.952 L 481.795 101.952 Q 484.179 101.678 485.976 100.288 L 485.976 100.288 L 485.976 100.288 Q 487.773 98.897 488.66 96.742 L 488.66 96.742 L 488.66 96.742 Q 489.548 94.586 489.257 92.059 L 489.257 92.059 L 489.257 92.059 Q 488.966 89.531 487.61 87.61 L 487.61 87.61 L 487.61 87.61 Q 486.253 85.688 484.187 84.742 L 484.187 84.742 L 484.187 84.742 Q 482.122 83.796 479.738 84.07 L 479.738 84.07 L 479.738 84.07 Q 477.353 84.345 475.556 85.735 L 475.556 85.735 L 475.556 85.735 Q 473.76 87.126 472.899 89.302 L 472.899 89.302 L 472.899 89.302 Q 472.038 91.479 472.329 94.006 L 472.329 94.006 L 472.329 94.006 Q 472.619 96.534 473.949 98.434 L 473.949 98.434 L 473.949 98.434 Q 475.279 100.335 477.345 101.281 L 477.345 101.281 L 477.345 101.281 Q 479.41 102.227 481.795 101.952 L 481.795 101.952 Z  M 512.767 75.922 L 512.767 75.922 Q 516.438 75.5 519.667 76.892 L 519.667 76.892 L 519.667 76.892 Q 522.895 78.284 524.96 81.115 L 524.96 81.115 L 524.96 81.115 Q 527.025 83.945 527.453 87.665 L 527.453 87.665 L 527.453 87.665 Q 527.881 91.384 526.632 94.596 L 526.632 94.596 L 526.632 94.596 Q 525.383 97.808 522.791 99.845 L 522.791 99.845 L 522.791 99.845 Q 520.198 101.883 516.765 102.278 L 516.765 102.278 L 516.765 102.278 Q 513.999 102.596 511.483 101.726 L 511.483 101.726 L 511.483 101.726 Q 508.967 100.856 507.063 98.997 L 507.063 98.997 L 508.544 111.872 L 508.544 111.872 Q 508.67 112.969 508.079 113.713 L 508.079 113.713 L 508.079 113.713 Q 507.488 114.458 506.392 114.584 L 506.392 114.584 L 506.392 114.584 Q 505.343 114.705 504.574 114.117 L 504.574 114.117 L 504.574 114.117 Q 503.806 113.529 503.68 112.432 L 503.68 112.432 L 501.178 90.687 L 501.178 90.687 Q 500.75 86.968 502.143 83.74 L 502.143 83.74 L 502.143 83.74 Q 503.535 80.511 506.315 78.428 L 506.315 78.428 L 506.315 78.428 Q 509.095 76.345 512.767 75.922 L 512.767 75.922 Z  M 515.318 98.096 L 515.318 98.096 Q 517.702 97.822 519.499 96.431 L 519.499 96.431 L 519.499 96.431 Q 521.296 95.041 522.183 92.885 L 522.183 92.885 L 522.183 92.885 Q 523.071 90.73 522.78 88.202 L 522.78 88.202 L 522.78 88.202 Q 522.489 85.675 521.133 83.753 L 521.133 83.753 L 521.133 83.753 Q 519.776 81.832 517.71 80.886 L 517.71 80.886 L 517.71 80.886 Q 515.645 79.94 513.26 80.214 L 513.26 80.214 L 513.26 80.214 Q 510.876 80.488 509.079 81.879 L 509.079 81.879 L 509.079 81.879 Q 507.282 83.269 506.422 85.446 L 506.422 85.446 L 506.422 85.446 Q 505.561 87.622 505.851 90.15 L 505.851 90.15 L 505.851 90.15 Q 506.142 92.677 507.472 94.577 L 507.472 94.577 L 507.472 94.577 Q 508.802 96.478 510.868 97.424 L 510.868 97.424 L 510.868 97.424 Q 512.933 98.37 515.318 98.096 L 515.318 98.096 Z  M 542.398 99.136 L 542.398 99.136 Q 540.347 99.372 538.573 98.44 L 538.573 98.44 L 538.573 98.44 Q 536.799 97.509 535.66 95.586 L 535.66 95.586 L 535.66 95.586 Q 534.521 93.664 534.23 91.137 L 534.23 91.137 L 531.235 65.1 L 531.235 65.1 Q 531.114 64.051 531.705 63.307 L 531.705 63.307 L 531.705 63.307 Q 532.296 62.563 533.345 62.442 L 533.345 62.442 L 533.345 62.442 Q 534.394 62.321 535.138 62.912 L 535.138 62.912 L 535.138 62.912 Q 535.883 63.503 536.003 64.552 L 536.003 64.552 L 538.999 90.588 L 538.999 90.588 Q 539.202 92.353 540.001 93.42 L 540.001 93.42 L 540.001 93.42 Q 540.8 94.488 541.849 94.367 L 541.849 94.367 L 543.041 94.23 L 543.041 94.23 Q 543.995 94.12 544.668 94.719 L 544.668 94.719 L 544.668 94.719 Q 545.341 95.318 545.462 96.367 L 545.462 96.367 L 545.462 96.367 Q 545.582 97.416 544.753 98.188 L 544.753 98.188 L 544.753 98.188 Q 543.924 98.96 542.493 99.125 L 542.493 99.125 L 542.398 99.136 Z  M 553.413 97.868 L 553.413 97.868 Q 552.364 97.989 551.593 97.377 L 551.593 97.377 L 551.593 97.377 Q 550.822 96.765 550.702 95.716 L 550.702 95.716 L 548.26 74.496 L 548.26 74.496 Q 548.134 73.399 548.749 72.652 L 548.749 72.652 L 548.749 72.652 Q 549.363 71.905 550.413 71.784 L 550.413 71.784 L 550.413 71.784 Q 551.509 71.658 552.254 72.249 L 552.254 72.249 L 552.254 72.249 Q 552.998 72.84 553.124 73.937 L 553.124 73.937 L 555.565 95.157 L 555.565 95.157 Q 555.686 96.206 555.098 96.974 L 555.098 96.974 L 555.098 96.974 Q 554.51 97.742 553.413 97.868 L 553.413 97.868 Z  M 549.924 67.54 L 549.924 67.54 Q 548.637 67.689 547.6 66.866 L 547.6 66.866 L 547.6 66.866 Q 546.563 66.043 546.415 64.755 L 546.415 64.755 L 546.415 64.755 Q 546.267 63.468 547.09 62.431 L 547.09 62.431 L 547.09 62.431 Q 547.913 61.394 549.2 61.246 L 549.2 61.246 L 549.2 61.246 Q 550.488 61.098 551.524 61.921 L 551.524 61.921 L 551.524 61.921 Q 552.561 62.744 552.709 64.031 L 552.709 64.031 L 552.709 64.031 Q 552.858 65.319 552.035 66.356 L 552.035 66.356 L 552.035 66.356 Q 551.212 67.392 549.924 67.54 L 549.924 67.54 Z  M 576.753 95.377 L 576.753 95.377 Q 572.986 95.81 569.785 94.439 L 569.785 94.439 L 569.785 94.439 Q 566.583 93.068 564.542 90.235 L 564.542 90.235 L 564.542 90.235 Q 562.501 87.401 562.073 83.682 L 562.073 83.682 L 562.073 83.682 Q 561.634 79.867 562.931 76.65 L 562.931 76.65 L 562.931 76.65 Q 564.227 73.432 566.989 71.399 L 566.989 71.399 L 566.989 71.399 Q 569.751 69.366 573.47 68.939 L 573.47 68.939 L 573.47 68.939 Q 579.097 68.291 583.31 72.155 L 583.31 72.155 L 583.31 72.155 Q 583.848 72.625 583.93 73.34 L 583.93 73.34 L 583.93 73.34 Q 584.051 74.389 583.084 75.225 L 583.084 75.225 L 583.084 75.225 Q 582.645 75.614 582.025 75.685 L 582.025 75.685 L 582.025 75.685 Q 580.929 75.811 580.067 75.041 L 580.067 75.041 L 580.067 75.041 Q 578.727 73.89 577.251 73.456 L 577.251 73.456 L 577.251 73.456 Q 575.776 73.022 573.964 73.23 L 573.964 73.23 L 573.964 73.23 Q 570.292 73.653 568.286 76.372 L 568.286 76.372 L 568.286 76.372 Q 566.28 79.091 566.746 83.144 L 566.746 83.144 L 566.746 83.144 Q 567.042 85.719 568.348 87.622 L 568.348 87.622 L 568.348 87.622 Q 569.654 89.526 571.717 90.448 L 571.717 90.448 L 571.717 90.448 Q 573.78 91.37 576.26 91.085 L 576.26 91.085 L 576.26 91.085 Q 579.502 90.712 581.313 88.812 L 581.313 88.812 L 581.313 88.812 Q 582.142 88.041 583.001 87.942 L 583.001 87.942 L 583.001 87.942 Q 583.668 87.865 584.29 88.228 L 584.29 88.228 L 584.29 88.228 Q 585.284 88.887 585.393 89.841 L 585.393 89.841 L 585.393 89.841 Q 585.476 90.556 584.969 91.194 L 584.969 91.194 L 584.969 91.194 Q 581.903 94.784 576.753 95.377 L 576.753 95.377 Z  M 602.368 65.614 L 602.368 65.614 Q 606.04 65.192 609.22 66.589 L 609.22 66.589 L 609.22 66.589 Q 612.401 67.987 614.49 70.815 L 614.49 70.815 L 614.49 70.815 Q 616.578 73.643 617.006 77.362 L 617.006 77.362 L 618.23 87.996 L 618.23 87.996 Q 618.35 89.045 617.738 89.816 L 617.738 89.816 L 617.738 89.816 Q 617.127 90.587 616.077 90.708 L 616.077 90.708 L 616.077 90.708 Q 615.028 90.828 614.257 90.216 L 614.257 90.216 L 614.257 90.216 Q 613.486 89.605 613.366 88.555 L 613.366 88.555 L 613.163 86.791 L 613.163 86.791 Q 611.73 89.034 609.477 90.452 L 609.477 90.452 L 609.477 90.452 Q 607.224 91.871 604.459 92.189 L 604.459 92.189 L 604.459 92.189 Q 601.025 92.584 598.038 91.189 L 598.038 91.189 L 598.038 91.189 Q 595.051 89.793 593.105 86.949 L 593.105 86.949 L 593.105 86.949 Q 591.16 84.104 590.732 80.385 L 590.732 80.385 L 590.732 80.385 Q 590.304 76.665 591.672 73.44 L 591.672 73.44 L 591.672 73.44 Q 593.04 70.214 595.868 68.125 L 595.868 68.125 L 595.868 68.125 Q 598.696 66.037 602.368 65.614 L 602.368 65.614 Z  M 604.919 87.788 L 604.919 87.788 Q 607.303 87.514 609.1 86.123 L 609.1 86.123 L 609.1 86.123 Q 610.897 84.733 611.76 82.58 L 611.76 82.58 L 611.76 82.58 Q 612.624 80.427 612.333 77.9 L 612.333 77.9 L 612.333 77.9 Q 612.042 75.372 610.71 73.448 L 610.71 73.448 L 610.71 73.448 Q 609.377 71.524 607.311 70.578 L 607.311 70.578 L 607.311 70.578 Q 605.246 69.632 602.861 69.906 L 602.861 69.906 L 602.861 69.906 Q 600.477 70.18 598.68 71.571 L 598.68 71.571 L 598.68 71.571 Q 596.883 72.961 595.999 75.14 L 595.999 75.14 L 595.999 75.14 Q 595.114 77.32 595.405 79.847 L 595.405 79.847 L 595.405 79.847 Q 595.696 82.375 597.049 84.272 L 597.049 84.272 L 597.049 84.272 Q 598.403 86.17 600.469 87.116 L 600.469 87.116 L 600.469 87.116 Q 602.534 88.062 604.919 87.788 L 604.919 87.788 Z  M 636.314 83.5 L 636.314 83.5 Q 637.173 83.401 637.845 84 L 637.845 84 L 637.845 84 Q 638.518 84.599 638.639 85.648 L 638.639 85.648 L 638.639 85.648 Q 638.76 86.697 638.05 87.455 L 638.05 87.455 L 638.05 87.455 Q 637.34 88.213 636.1 88.356 L 636.1 88.356 L 635.242 88.455 L 635.242 88.455 Q 632.905 88.723 630.834 87.73 L 630.834 87.73 L 630.834 87.73 Q 628.763 86.736 627.425 84.764 L 627.425 84.764 L 627.425 84.764 Q 626.086 82.792 625.785 80.169 L 625.785 80.169 L 624.43 68.391 L 622.236 68.643 L 622.236 68.643 Q 621.235 68.758 620.549 68.258 L 620.549 68.258 L 620.549 68.258 Q 619.863 67.757 619.764 66.898 L 619.764 66.898 L 619.764 66.898 Q 619.655 65.945 620.209 65.301 L 620.209 65.301 L 620.209 65.301 Q 620.763 64.657 621.764 64.542 L 621.764 64.542 L 623.958 64.29 L 623.168 57.423 L 623.168 57.423 Q 623.047 56.374 623.638 55.63 L 623.638 55.63 L 623.638 55.63 Q 624.229 54.885 625.278 54.765 L 625.278 54.765 L 625.278 54.765 Q 626.327 54.644 627.071 55.235 L 627.071 55.235 L 627.071 55.235 Q 627.816 55.826 627.936 56.875 L 627.936 56.875 L 628.726 63.741 L 632.78 63.275 L 632.78 63.275 Q 633.781 63.16 634.467 63.661 L 634.467 63.661 L 634.467 63.661 Q 635.153 64.162 635.262 65.115 L 635.262 65.115 L 635.262 65.115 Q 635.361 65.974 634.807 66.617 L 634.807 66.617 L 634.807 66.617 Q 634.253 67.261 633.251 67.376 L 633.251 67.376 L 629.198 67.842 L 630.553 79.621 L 630.553 79.621 Q 630.773 81.528 631.97 82.695 L 631.97 82.695 L 631.97 82.695 Q 633.167 83.862 634.693 83.686 L 634.693 83.686 L 636.314 83.5 Z  M 647.783 87.012 L 647.783 87.012 Q 646.734 87.133 645.963 86.521 L 645.963 86.521 L 645.963 86.521 Q 645.192 85.909 645.071 84.86 L 645.071 84.86 L 642.63 63.64 L 642.63 63.64 Q 642.504 62.543 643.118 61.796 L 643.118 61.796 L 643.118 61.796 Q 643.733 61.049 644.782 60.928 L 644.782 60.928 L 644.782 60.928 Q 645.879 60.802 646.623 61.393 L 646.623 61.393 L 646.623 61.393 Q 647.368 61.983 647.494 63.08 L 647.494 63.08 L 649.935 84.3 L 649.935 84.3 Q 650.056 85.349 649.468 86.117 L 649.468 86.117 L 649.468 86.117 Q 648.88 86.886 647.783 87.012 L 647.783 87.012 Z  M 644.294 56.684 L 644.294 56.684 Q 643.006 56.832 641.969 56.009 L 641.969 56.009 L 641.969 56.009 Q 640.933 55.186 640.785 53.899 L 640.785 53.899 L 640.785 53.899 Q 640.636 52.611 641.459 51.574 L 641.459 51.574 L 641.459 51.574 Q 642.282 50.538 643.57 50.389 L 643.57 50.389 L 643.57 50.389 Q 644.857 50.241 645.894 51.064 L 645.894 51.064 L 645.894 51.064 Q 646.931 51.887 647.079 53.175 L 647.079 53.175 L 647.079 53.175 Q 647.227 54.462 646.404 55.499 L 646.404 55.499 L 646.404 55.499 Q 645.581 56.536 644.294 56.684 L 644.294 56.684 Z  M 671.123 84.52 L 671.123 84.52 Q 667.308 84.959 664.109 83.612 L 664.109 83.612 L 664.109 83.612 Q 660.91 82.264 658.896 79.452 L 658.896 79.452 L 658.896 79.452 Q 656.881 76.64 656.442 72.825 L 656.442 72.825 L 656.442 72.825 Q 655.998 68.963 657.321 65.767 L 657.321 65.767 L 657.321 65.767 Q 658.645 62.57 661.454 60.532 L 661.454 60.532 L 661.454 60.532 Q 664.263 58.493 668.078 58.055 L 668.078 58.055 L 668.078 58.055 Q 671.845 57.621 675.021 58.971 L 675.021 58.971 L 675.021 58.971 Q 678.196 60.321 680.234 63.131 L 680.234 63.131 L 680.234 63.131 Q 682.273 65.94 682.717 69.802 L 682.717 69.802 L 682.717 69.802 Q 683.156 73.617 681.832 76.814 L 681.832 76.814 L 681.832 76.814 Q 680.509 80.01 677.723 82.045 L 677.723 82.045 L 677.723 82.045 Q 674.938 84.081 671.123 84.52 L 671.123 84.52 Z  M 670.629 80.228 L 670.629 80.228 Q 673.061 79.949 674.861 78.582 L 674.861 78.582 L 674.861 78.582 Q 676.66 77.215 677.5 75.065 L 677.5 75.065 L 677.5 75.065 Q 678.34 72.915 678.044 70.34 L 678.044 70.34 L 678.044 70.34 Q 677.747 67.765 676.439 65.838 L 676.439 65.838 L 676.439 65.838 Q 675.13 63.911 673.067 62.989 L 673.067 62.989 L 673.067 62.989 Q 671.004 62.066 668.572 62.346 L 668.572 62.346 L 668.572 62.346 Q 666.14 62.626 664.34 63.993 L 664.34 63.993 L 664.34 63.993 Q 662.541 65.359 661.68 67.536 L 661.68 67.536 L 661.68 67.536 Q 660.819 69.713 661.115 72.288 L 661.115 72.288 L 661.115 72.288 Q 661.412 74.863 662.742 76.763 L 662.742 76.763 L 662.742 76.763 Q 664.071 78.664 666.134 79.586 L 666.134 79.586 L 666.134 79.586 Q 668.197 80.508 670.629 80.228 L 670.629 80.228 Z  M 701.405 54.172 L 701.405 54.172 Q 704.695 53.794 707.483 54.923 L 707.483 54.923 L 707.483 54.923 Q 710.27 56.051 712.064 58.623 L 712.064 58.623 L 712.064 58.623 Q 713.857 61.195 714.302 65.058 L 714.302 65.058 L 715.651 76.788 L 715.651 76.788 Q 715.772 77.837 715.16 78.608 L 715.16 78.608 L 715.16 78.608 Q 714.548 79.379 713.499 79.5 L 713.499 79.5 L 713.499 79.5 Q 712.45 79.621 711.679 79.009 L 711.679 79.009 L 711.679 79.009 Q 710.908 78.397 710.787 77.348 L 710.787 77.348 L 709.438 65.617 L 709.438 65.617 Q 708.993 61.755 706.691 60.014 L 706.691 60.014 L 706.691 60.014 Q 704.389 58.274 700.956 58.669 L 700.956 58.669 L 700.956 58.669 Q 698.953 58.899 697.401 59.899 L 697.401 59.899 L 697.401 59.899 Q 695.849 60.899 695.079 62.389 L 695.079 62.389 L 695.079 62.389 Q 694.308 63.879 694.505 65.596 L 694.505 65.596 L 696.052 79.043 L 696.052 79.043 Q 696.173 80.092 695.585 80.86 L 695.585 80.86 L 695.585 80.86 Q 694.997 81.629 693.9 81.755 L 693.9 81.755 L 693.9 81.755 Q 692.851 81.875 692.08 81.263 L 692.08 81.263 L 692.08 81.263 Q 691.309 80.652 691.188 79.603 L 691.188 79.603 L 688.742 58.335 L 688.742 58.335 Q 688.616 57.238 689.23 56.491 L 689.23 56.491 L 689.23 56.491 Q 689.845 55.744 690.894 55.623 L 690.894 55.623 L 690.894 55.623 Q 691.991 55.497 692.735 56.088 L 692.735 56.088 L 692.735 56.088 Q 693.479 56.678 693.606 57.775 L 693.606 57.775 L 693.666 58.3 L 693.666 58.3 Q 695.016 56.598 697.019 55.522 L 697.019 55.522 L 697.019 55.522 Q 699.021 54.447 701.405 54.172 L 701.405 54.172 Z " fill-rule="evenodd" fill="rgb(89,106,115)"/><g id="Group"><path d=" M 516.82 160.62 L 526 151.46 L 535.18 160.62 L 538 157.8 L 526 145.8 L 514 157.8 L 516.82 160.62 Z " fill="rgb(89,106,115)"/><path d=" M 502 129.8 L 550 129.8 L 550 177.8 L 502 177.8 L 502 129.8 Z " fill="none"/></g><path d=" M 711.42 241.43 L 711.42 241.43 Q 709.2 241.43 707.61 240.02 L 707.61 240.02 L 707.61 240.02 Q 706.02 238.61 705.195 235.97 L 705.195 235.97 L 705.195 235.97 Q 704.37 233.33 704.37 229.67 L 704.37 229.67 L 704.37 229.67 Q 704.37 226.04 705.195 223.4 L 705.195 223.4 L 705.195 223.4 Q 706.02 220.76 707.61 219.35 L 707.61 219.35 L 707.61 219.35 Q 709.2 217.94 711.42 217.94 L 711.42 217.94 L 711.42 217.94 Q 713.67 217.94 715.26 219.365 L 715.26 219.365 L 715.26 219.365 Q 716.85 220.79 717.675 223.43 L 717.675 223.43 L 717.675 223.43 Q 718.5 226.07 718.5 229.67 L 718.5 229.67 L 718.5 229.67 Q 718.5 235.19 716.64 238.31 L 716.64 238.31 L 716.64 238.31 Q 714.78 241.43 711.42 241.43 L 711.42 241.43 Z  M 711.42 239.09 L 711.42 239.09 Q 713.76 239.09 714.96 236.51 L 714.96 236.51 L 714.96 236.51 Q 716.16 233.93 716.16 229.67 L 716.16 229.67 L 716.16 229.67 Q 716.16 225.44 714.945 222.86 L 714.945 222.86 L 714.945 222.86 Q 713.73 220.28 711.42 220.28 L 711.42 220.28 L 711.42 220.28 Q 709.11 220.28 707.91 222.86 L 707.91 222.86 L 707.91 222.86 Q 706.71 225.44 706.71 229.67 L 706.71 229.67 L 706.71 229.67 Q 706.71 233.96 707.91 236.525 L 707.91 236.525 L 707.91 236.525 Q 709.11 239.09 711.42 239.09 L 711.42 239.09 Z  M 638.4 241.43 L 638.4 241.43 Q 637.89 241.43 637.56 241.1 L 637.56 241.1 L 637.56 241.1 Q 637.23 240.77 637.23 240.26 L 637.23 240.26 L 637.23 219.17 L 637.23 219.17 Q 637.23 218.66 637.56 218.33 L 637.56 218.33 L 637.56 218.33 Q 637.89 218 638.4 218 L 638.4 218 L 643.8 218 L 643.8 218 Q 647.19 218 649.86 219.5 L 649.86 219.5 L 649.86 219.5 Q 652.53 221 654.015 223.655 L 654.015 223.655 L 654.015 223.655 Q 655.5 226.31 655.5 229.7 L 655.5 229.7 L 655.5 229.7 Q 655.5 233.09 654.015 235.76 L 654.015 235.76 L 654.015 235.76 Q 652.53 238.43 649.86 239.93 L 649.86 239.93 L 649.86 239.93 Q 647.19 241.43 643.8 241.43 L 643.8 241.43 L 638.4 241.43 Z  M 639.57 239.33 L 643.8 239.33 L 643.8 239.33 Q 646.53 239.33 648.66 238.085 L 648.66 238.085 L 648.66 238.085 Q 650.79 236.84 651.99 234.65 L 651.99 234.65 L 651.99 234.65 Q 653.19 232.46 653.19 229.7 L 653.19 229.7 L 653.19 229.7 Q 653.19 226.94 651.99 224.75 L 651.99 224.75 L 651.99 224.75 Q 650.79 222.56 648.66 221.33 L 648.66 221.33 L 648.66 221.33 Q 646.53 220.1 643.8 220.1 L 643.8 220.1 L 639.57 220.1 L 639.57 239.33 Z  M 667.5 224.87 L 667.5 224.87 Q 669.84 224.87 671.745 225.965 L 671.745 225.965 L 671.745 225.965 Q 673.65 227.06 674.745 228.98 L 674.745 228.98 L 674.745 228.98 Q 675.84 230.9 675.84 233.24 L 675.84 233.24 L 675.84 240.29 L 675.84 240.29 Q 675.84 240.77 675.51 241.1 L 675.51 241.1 L 675.51 241.1 Q 675.18 241.43 674.67 241.43 L 674.67 241.43 L 674.67 241.43 Q 674.16 241.43 673.83 241.115 L 673.83 241.115 L 673.83 241.115 Q 673.5 240.8 673.5 240.29 L 673.5 240.29 L 673.5 238.49 L 673.5 238.49 Q 672.45 239.93 670.83 240.755 L 670.83 240.755 L 670.83 240.755 Q 669.21 241.58 667.26 241.58 L 667.26 241.58 L 667.26 241.58 Q 664.98 241.58 663.135 240.485 L 663.135 240.485 L 663.135 240.485 Q 661.29 239.39 660.225 237.485 L 660.225 237.485 L 660.225 237.485 Q 659.16 235.58 659.16 233.24 L 659.16 233.24 L 659.16 233.24 Q 659.16 230.9 660.255 228.98 L 660.255 228.98 L 660.255 228.98 Q 661.35 227.06 663.255 225.965 L 663.255 225.965 L 663.255 225.965 Q 665.16 224.87 667.5 224.87 L 667.5 224.87 Z  M 667.5 239.48 L 667.5 239.48 Q 669.21 239.48 670.59 238.67 L 670.59 238.67 L 670.59 238.67 Q 671.97 237.86 672.765 236.435 L 672.765 236.435 L 672.765 236.435 Q 673.56 235.01 673.56 233.24 L 673.56 233.24 L 673.56 233.24 Q 673.56 231.47 672.765 230.045 L 672.765 230.045 L 672.765 230.045 Q 671.97 228.62 670.59 227.795 L 670.59 227.795 L 670.59 227.795 Q 669.21 226.97 667.5 226.97 L 667.5 226.97 L 667.5 226.97 Q 665.79 226.97 664.395 227.795 L 664.395 227.795 L 664.395 227.795 Q 663 228.62 662.205 230.045 L 662.205 230.045 L 662.205 230.045 Q 661.41 231.47 661.41 233.24 L 661.41 233.24 L 661.41 233.24 Q 661.41 235.01 662.205 236.435 L 662.205 236.435 L 662.205 236.435 Q 663 237.86 664.395 238.67 L 664.395 238.67 L 664.395 238.67 Q 665.79 239.48 667.5 239.48 L 667.5 239.48 Z  M 693.18 225.11 L 693.18 225.11 Q 693.87 225.38 693.87 225.98 L 693.87 225.98 L 693.87 225.98 Q 693.87 226.25 693.75 226.52 L 693.75 226.52 L 684.03 247.88 L 684.03 247.88 Q 683.76 248.57 683.16 248.57 L 683.16 248.57 L 683.16 248.57 Q 682.86 248.57 682.62 248.45 L 682.62 248.45 L 682.62 248.45 Q 681.93 248.18 681.93 247.55 L 681.93 247.55 L 681.93 247.55 Q 681.93 247.28 682.05 247.01 L 682.05 247.01 L 685.02 240.44 L 685.02 240.41 L 678.33 226.55 L 678.33 226.55 Q 678.21 226.31 678.21 226.01 L 678.21 226.01 L 678.21 226.01 Q 678.21 225.38 678.87 225.11 L 678.87 225.11 L 678.87 225.11 Q 679.11 224.99 679.41 224.99 L 679.41 224.99 L 679.41 224.99 Q 680.04 224.99 680.31 225.62 L 680.31 225.62 L 686.16 237.95 L 691.74 225.65 L 691.74 225.65 Q 692.04 224.99 692.64 224.99 L 692.64 224.99 L 692.64 224.99 Q 692.91 224.99 693.18 225.11 L 693.18 225.11 Z  M 546.54 241.43 L 546.54 241.43 Q 546.06 241.43 545.715 241.085 L 545.715 241.085 L 545.715 241.085 Q 545.37 240.74 545.37 240.26 L 545.37 240.26 L 545.37 219.17 L 545.37 219.17 Q 545.37 218.66 545.715 218.33 L 545.715 218.33 L 545.715 218.33 Q 546.06 218 546.54 218 L 546.54 218 L 560.61 218 L 560.61 218 Q 561.12 218 561.45 218.33 L 561.45 218.33 L 561.45 218.33 Q 561.78 218.66 561.78 219.14 L 561.78 219.14 L 561.78 219.14 Q 561.78 219.62 561.45 219.935 L 561.45 219.935 L 561.45 219.935 Q 561.12 220.25 560.61 220.25 L 560.61 220.25 L 547.71 220.25 L 547.71 228.53 L 557.1 228.53 L 557.1 228.53 Q 557.61 228.53 557.94 228.845 L 557.94 228.845 L 557.94 228.845 Q 558.27 229.16 558.27 229.67 L 558.27 229.67 L 558.27 229.67 Q 558.27 230.15 557.94 230.48 L 557.94 230.48 L 557.94 230.48 Q 557.61 230.81 557.1 230.81 L 557.1 230.81 L 547.71 230.81 L 547.71 240.26 L 547.71 240.26 Q 547.71 240.74 547.38 241.085 L 547.38 241.085 L 547.38 241.085 Q 547.05 241.43 546.54 241.43 L 546.54 241.43 Z  M 573.09 224.84 L 573.09 224.84 Q 574.35 224.84 575.085 225.17 L 575.085 225.17 L 575.085 225.17 Q 575.82 225.5 575.82 226.1 L 575.82 226.1 L 575.82 226.1 Q 575.82 226.28 575.79 226.37 L 575.79 226.37 L 575.79 226.37 Q 575.67 226.79 575.415 226.94 L 575.415 226.94 L 575.415 226.94 Q 575.16 227.09 574.71 227.09 L 574.71 227.09 L 574.71 227.09 Q 574.44 227.09 573.78 227.03 L 573.78 227.03 L 573.78 227.03 Q 573.54 227 573.06 227 L 573.06 227 L 573.06 227 Q 570.81 227 569.385 228.2 L 569.385 228.2 L 569.385 228.2 Q 567.96 229.4 567.96 231.32 L 567.96 231.32 L 567.96 240.29 L 567.96 240.29 Q 567.96 240.83 567.66 241.13 L 567.66 241.13 L 567.66 241.13 Q 567.36 241.43 566.82 241.43 L 566.82 241.43 L 566.82 241.43 Q 566.28 241.43 565.98 241.13 L 565.98 241.13 L 565.98 241.13 Q 565.68 240.83 565.68 240.29 L 565.68 240.29 L 565.68 226.16 L 565.68 226.16 Q 565.68 225.62 565.98 225.32 L 565.98 225.32 L 565.98 225.32 Q 566.28 225.02 566.82 225.02 L 566.82 225.02 L 566.82 225.02 Q 567.36 225.02 567.66 225.32 L 567.66 225.32 L 567.66 225.32 Q 567.96 225.62 567.96 226.16 L 567.96 226.16 L 567.96 227.48 L 567.96 227.48 Q 568.83 226.22 570.18 225.53 L 570.18 225.53 L 570.18 225.53 Q 571.53 224.84 573.09 224.84 L 573.09 224.84 Z  M 586.89 241.58 L 586.89 241.58 Q 584.52 241.58 582.615 240.5 L 582.615 240.5 L 582.615 240.5 Q 580.71 239.42 579.63 237.515 L 579.63 237.515 L 579.63 237.515 Q 578.55 235.61 578.55 233.24 L 578.55 233.24 L 578.55 233.24 Q 578.55 230.87 579.63 228.95 L 579.63 228.95 L 579.63 228.95 Q 580.71 227.03 582.615 225.95 L 582.615 225.95 L 582.615 225.95 Q 584.52 224.87 586.89 224.87 L 586.89 224.87 L 586.89 224.87 Q 589.26 224.87 591.15 225.95 L 591.15 225.95 L 591.15 225.95 Q 593.04 227.03 594.135 228.95 L 594.135 228.95 L 594.135 228.95 Q 595.23 230.87 595.23 233.24 L 595.23 233.24 L 595.23 233.24 Q 595.23 235.61 594.15 237.515 L 594.15 237.515 L 594.15 237.515 Q 593.07 239.42 591.165 240.5 L 591.165 240.5 L 591.165 240.5 Q 589.26 241.58 586.89 241.58 L 586.89 241.58 Z  M 586.89 239.48 L 586.89 239.48 Q 588.63 239.48 590.01 238.67 L 590.01 238.67 L 590.01 238.67 Q 591.39 237.86 592.17 236.435 L 592.17 236.435 L 592.17 236.435 Q 592.95 235.01 592.95 233.24 L 592.95 233.24 L 592.95 233.24 Q 592.95 231.44 592.17 230.015 L 592.17 230.015 L 592.17 230.015 Q 591.39 228.59 590.01 227.78 L 590.01 227.78 L 590.01 227.78 Q 588.63 226.97 586.89 226.97 L 586.89 226.97 L 586.89 226.97 Q 585.18 226.97 583.785 227.78 L 583.785 227.78 L 583.785 227.78 Q 582.39 228.59 581.595 230.015 L 581.595 230.015 L 581.595 230.015 Q 580.8 231.44 580.8 233.24 L 580.8 233.24 L 580.8 233.24 Q 580.8 235.01 581.595 236.435 L 581.595 236.435 L 581.595 236.435 Q 582.39 237.86 583.785 238.67 L 583.785 238.67 L 583.785 238.67 Q 585.18 239.48 586.89 239.48 L 586.89 239.48 Z  M 617.01 224.84 L 617.01 224.84 Q 618.78 224.84 620.145 225.68 L 620.145 225.68 L 620.145 225.68 Q 621.51 226.52 622.275 228.065 L 622.275 228.065 L 622.275 228.065 Q 623.04 229.61 623.04 231.65 L 623.04 231.65 L 623.04 240.29 L 623.04 240.29 Q 623.04 240.8 622.725 241.115 L 622.725 241.115 L 622.725 241.115 Q 622.41 241.43 621.9 241.43 L 621.9 241.43 L 621.9 241.43 Q 621.39 241.43 621.06 241.115 L 621.06 241.115 L 621.06 241.115 Q 620.73 240.8 620.73 240.29 L 620.73 240.29 L 620.73 231.65 L 620.73 231.65 Q 620.73 229.52 619.635 228.275 L 619.635 228.275 L 619.635 228.275 Q 618.54 227.03 616.77 227.03 L 616.77 227.03 L 616.77 227.03 Q 614.88 227.03 613.71 228.29 L 613.71 228.29 L 613.71 228.29 Q 612.54 229.55 612.57 231.59 L 612.57 231.59 L 612.57 231.65 L 612.57 240.29 L 612.57 240.29 Q 612.57 240.8 612.255 241.115 L 612.255 241.115 L 612.255 241.115 Q 611.94 241.43 611.43 241.43 L 611.43 241.43 L 611.43 241.43 Q 610.92 241.43 610.59 241.115 L 610.59 241.115 L 610.59 241.115 Q 610.26 240.8 610.26 240.29 L 610.26 240.29 L 610.26 231.65 L 610.26 231.65 Q 610.26 229.52 609.165 228.275 L 609.165 228.275 L 609.165 228.275 Q 608.07 227.03 606.3 227.03 L 606.3 227.03 L 606.3 227.03 Q 604.44 227.03 603.24 228.26 L 603.24 228.26 L 603.24 228.26 Q 602.04 229.49 602.04 231.41 L 602.04 231.41 L 602.04 240.29 L 602.04 240.29 Q 602.04 240.8 601.725 241.115 L 601.725 241.115 L 601.725 241.115 Q 601.41 241.43 600.9 241.43 L 600.9 241.43 L 600.9 241.43 Q 600.39 241.43 600.06 241.115 L 600.06 241.115 L 600.06 241.115 Q 599.73 240.8 599.73 240.29 L 599.73 240.29 L 599.73 226.19 L 599.73 226.19 Q 599.73 225.68 600.06 225.35 L 600.06 225.35 L 600.06 225.35 Q 600.39 225.02 600.9 225.02 L 600.9 225.02 L 600.9 225.02 Q 601.41 225.02 601.725 225.35 L 601.725 225.35 L 601.725 225.35 Q 602.04 225.68 602.04 226.19 L 602.04 226.19 L 602.04 226.85 L 602.04 226.85 Q 602.88 225.89 604.035 225.365 L 604.035 225.365 L 604.035 225.365 Q 605.19 224.84 606.54 224.84 L 606.54 224.84 L 606.54 224.84 Q 608.19 224.84 609.51 225.59 L 609.51 225.59 L 609.51 225.59 Q 610.83 226.34 611.61 227.69 L 611.61 227.69 L 611.61 227.69 Q 612.48 226.34 613.875 225.59 L 613.875 225.59 L 613.875 225.59 Q 615.27 224.84 617.01 224.84 L 617.01 224.84 Z  M 519.24 241.91 L 519.24 241.91 Q 518.52 241.91 518.01 241.4 L 518.01 241.4 L 518.01 241.4 Q 517.5 240.89 517.5 240.17 L 517.5 240.17 L 517.5 240.17 Q 517.5 239.42 518.025 238.91 L 518.025 238.91 L 518.025 238.91 Q 518.55 238.4 519.24 238.4 L 519.24 238.4 L 519.24 238.4 Q 519.96 238.4 520.47 238.925 L 520.47 238.925 L 520.47 238.925 Q 520.98 239.45 520.98 240.17 L 520.98 240.17 L 520.98 240.17 Q 520.98 240.89 520.47 241.4 L 520.47 241.4 L 520.47 241.4 Q 519.96 241.91 519.24 241.91 L 519.24 241.91 Z  M 525.72 241.91 L 525.72 241.91 Q 525 241.91 524.49 241.4 L 524.49 241.4 L 524.49 241.4 Q 523.98 240.89 523.98 240.17 L 523.98 240.17 L 523.98 240.17 Q 523.98 239.42 524.505 238.91 L 524.505 238.91 L 524.505 238.91 Q 525.03 238.4 525.72 238.4 L 525.72 238.4 L 525.72 238.4 Q 526.44 238.4 526.95 238.925 L 526.95 238.925 L 526.95 238.925 Q 527.46 239.45 527.46 240.17 L 527.46 240.17 L 527.46 240.17 Q 527.46 240.89 526.95 241.4 L 526.95 241.4 L 526.95 241.4 Q 526.44 241.91 525.72 241.91 L 525.72 241.91 Z  M 532.2 241.91 L 532.2 241.91 Q 531.48 241.91 530.97 241.4 L 530.97 241.4 L 530.97 241.4 Q 530.46 240.89 530.46 240.17 L 530.46 240.17 L 530.46 240.17 Q 530.46 239.42 530.985 238.91 L 530.985 238.91 L 530.985 238.91 Q 531.51 238.4 532.2 238.4 L 532.2 238.4 L 532.2 238.4 Q 532.92 238.4 533.43 238.925 L 533.43 238.925 L 533.43 238.925 Q 533.94 239.45 533.94 240.17 L 533.94 240.17 L 533.94 240.17 Q 533.94 240.89 533.43 241.4 L 533.43 241.4 L 533.43 241.4 Q 532.92 241.91 532.2 241.91 L 532.2 241.91 Z " fill-rule="evenodd" fill="rgb(89,106,115)"/></g></svg>